<?xml version='1.0' encoding='ascii'?>
<svg xmlns="http://www.w3.org/2000/svg" version="1.1" width="1920" height="1080">
    <g id="ViewLayer_LineSet" xmlns:inkscape="http://www.inkscape.org/namespaces/inkscape" inkscape:groupmode="lineset" inkscape:label="ViewLayer_LineSet">
        <g xmlns:inkscape="http://www.inkscape.org/namespaces/inkscape" inkscape:groupmode="layer" id="strokes" inkscape:label="strokes">
            <path fill="none" stroke-width="3.0" stroke-linecap="butt" stroke-opacity="1.0" stroke="rgb(0, 0, 0)" stroke-linejoin="bevel" d=" M 25.847, 70.754 27.046, 71.979 28.250, 73.207 29.460, 74.444 30.682, 75.691 31.918, 76.953 33.172, 78.234 34.448, 79.538 35.749, 80.867 37.079, 82.226 38.438, 83.613 39.825, 85.029 41.239, 86.471 42.680, 87.940 44.148, 89.434 45.642, 90.951 47.162, 92.492 48.706, 94.055 50.275, 95.639 51.867, 97.244 53.484, 98.867 55.123, 100.509 56.784, 102.169 58.467, 103.844 60.172, 105.535 61.897, 107.241 63.643, 108.960 65.408, 110.691 67.193, 112.434 68.997, 114.187 70.818, 115.950 72.658, 117.722 74.514, 119.501 76.387, 121.287 78.276, 123.079 80.181, 124.875 82.101, 126.675 84.036, 128.478 85.984, 130.283 87.947, 132.089 89.922, 133.894 91.909, 135.699 93.909, 137.501 95.920, 139.301 97.942, 141.096 99.974, 142.887 102.016, 144.672 104.068, 146.450 106.128, 148.220 108.197, 149.981 110.274, 151.732 112.357, 153.473 114.448, 155.202 116.545, 156.919 118.648, 158.621 120.755, 160.309 122.868, 161.982 124.984, 163.638 127.105, 165.277 129.228, 166.897 131.354, 168.497 133.482, 170.078 135.612, 171.636 137.742, 173.173 139.873, 174.686 142.005, 176.175 144.136, 177.640 146.267, 179.081 148.398, 180.499 150.530, 181.893 152.661, 183.264 154.792, 184.612 156.923, 185.936 159.054, 187.239 161.185, 188.518 163.315, 189.776 165.446, 191.011 167.577, 192.225 169.707, 193.417 171.837, 194.587 173.967, 195.737 176.097, 196.865 178.227, 197.972 180.357, 199.059 182.487, 200.126 184.616, 201.172 186.745, 202.198 188.874, 203.204 191.003, 204.191 193.131, 205.158 195.259, 206.106 197.387, 207.035 199.515, 207.945 201.643, 208.837 203.770, 209.710 205.897, 210.565 208.024, 211.402 210.150, 212.222 212.276, 213.023 214.402, 213.807 216.527, 214.574 218.652, 215.324 220.777, 216.058 222.902, 216.774 225.026, 217.475 227.149, 218.159 229.273, 218.827 231.396, 219.479 233.518, 220.116 235.640, 220.738 237.762, 221.344 239.883, 221.935 242.004, 222.512 244.124, 223.074 246.244, 223.621 248.364, 224.155 250.483, 224.674 252.601, 225.180 254.719, 225.673 256.837, 226.151 258.954, 226.617 261.071, 227.070 263.187, 227.510 265.302, 227.938 267.417, 228.353 269.531, 228.756 271.645, 229.147 273.758, 229.527 275.871, 229.894 277.983, 230.251 280.094, 230.596 282.205, 230.931 284.316, 231.255 286.425, 231.568 288.535, 231.870 290.643, 232.163 292.751, 232.445 294.859, 232.718 296.966, 232.980 299.073, 233.233 301.179, 233.477 303.285, 233.712 305.390, 233.937 307.495, 234.154 309.599, 234.362 311.703, 234.561 313.806, 234.753 315.909, 234.936 318.012, 235.111 320.114, 235.278 322.215, 235.438 324.317, 235.590 326.418, 235.735 328.518, 235.873 330.619, 236.004 332.719, 236.129 334.818, 236.247 336.917, 236.358 339.016, 236.463 341.115, 236.563 343.213, 236.656 345.311, 236.744 347.409, 236.826 349.506, 236.903 351.603, 236.975 353.700, 237.042 355.797, 237.104 357.893, 237.161 359.990, 237.214 362.085, 237.263 364.181, 237.308 366.277, 237.349 368.372, 237.386 370.467, 237.420 372.562, 237.450 374.657, 237.477 376.752, 237.501 378.846, 237.522 380.941, 237.541 383.035, 237.557 385.129, 237.571 387.223, 237.583 389.317, 237.592 391.411, 237.600 393.504, 237.607 395.598, 237.612 397.692, 237.615 399.785, 237.618 401.879, 237.620 403.972, 237.621 406.066, 237.622 408.159, 237.622 410.252, 237.622 410.252, 234.750 410.252, 231.878 410.252, 229.006 410.252, 226.134 410.252, 223.262 410.252, 220.390 410.252, 217.518 410.252, 214.646 410.252, 211.774 410.252, 208.902 410.252, 206.030 410.252, 203.158 410.252, 200.286 410.252, 197.414 410.252, 194.542 410.252, 191.670 410.252, 188.798 410.252, 185.926 410.252, 183.054 410.252, 180.182 410.252, 177.310 410.252, 174.438 410.252, 171.566 410.252, 168.694 410.252, 165.822 410.252, 162.950 410.252, 160.078 410.252, 157.206 410.252, 154.334 410.252, 151.462 410.252, 148.590 410.252, 145.719 410.252, 142.846 410.252, 139.975 410.252, 137.103 410.252, 134.231 410.252, 131.359 410.252, 128.487 410.252, 125.615 410.252, 122.743 410.252, 119.871 410.252, 116.999 410.252, 114.127 410.252, 111.255 410.252, 108.383 410.252, 105.511 410.252, 102.639 410.252, 99.767 410.252, 96.895 410.252, 94.023 410.252, 91.151 410.252, 88.279 410.252, 85.407 410.252, 82.535 410.252, 79.663 410.252, 76.791 410.252, 73.919 410.252, 71.047 410.252, 68.175 410.252, 65.303 410.252, 62.431 410.252, 59.559 410.252, 56.687 410.252, 53.815 408.108, 53.815 405.964, 53.815 403.820, 53.815 401.677, 53.815 399.533, 53.815 397.389, 53.815 395.245, 53.815 393.101, 53.815 390.957, 53.815 388.814, 53.815 386.670, 53.815 384.527, 53.815 382.384, 53.815 380.241, 53.815 378.097, 53.815 375.955, 53.815 373.812, 53.815 371.669, 53.815 369.527, 53.815 367.385, 53.815 365.242, 53.815 363.101, 53.815 360.959, 53.815 358.818, 53.815 356.676, 53.815 354.535, 53.815 352.394, 53.815 350.254, 53.815 348.114, 53.815 345.974, 53.815 343.834, 53.815 341.695, 53.815 339.555, 53.815 337.417, 53.815 335.278, 53.815 333.140, 53.815 331.002, 53.815 328.865, 53.815 326.727, 53.815 324.591, 53.815 322.454, 53.815 320.318, 53.815 318.182, 53.815 316.047, 53.815 313.912, 53.815 311.778, 53.815 309.644, 53.815 307.510, 53.815 305.377, 53.815 303.245, 53.815 301.112, 53.815 298.981, 53.815 296.849, 53.815 294.718, 53.815 292.588, 53.815 290.458, 53.815 288.329, 53.815 286.200, 53.815 284.072, 53.815 281.945, 53.815 279.818, 53.815 277.691, 53.815 275.565, 53.815 273.440, 53.815 271.315, 53.815 269.191, 53.815 267.067, 53.815 264.944, 53.815 262.821, 53.815 260.700, 53.815 258.578, 53.815 256.457, 53.815 254.337, 53.815 252.217, 53.815 250.097, 53.815 247.979, 53.815 245.860, 53.815 243.742, 53.815 241.625, 53.815 239.508, 53.815 237.391, 53.815 235.275, 53.815 233.159, 53.815 231.044, 53.815 228.929, 53.815 226.815, 53.815 224.701, 53.815 222.587, 53.815 220.473, 53.815 218.361, 53.815 216.248, 53.815 214.136, 53.815 212.024, 53.815 209.912, 53.815 207.801, 53.815 205.690, 53.815 203.579, 53.815 201.468, 53.815 199.358, 53.815 197.248, 53.815 195.139, 53.815 193.029, 53.815 190.920, 53.815 188.811, 53.815 186.703, 53.815 184.594, 53.815 182.486, 53.815 180.378, 53.815 178.270, 53.815 176.162, 53.815 174.055, 53.815 171.947, 53.815 169.840, 53.815 167.733, 53.815 165.626, 53.815 163.519, 53.815 161.412, 53.815 159.306, 53.815 157.199, 53.815 155.092, 53.815 152.986, 53.815 150.880, 53.815 148.773, 53.815 146.667, 53.815 144.561, 53.815 142.455, 53.815 140.349, 53.815 138.243, 53.815 136.136, 53.815 134.031, 53.815 131.926, 53.815 129.823, 53.815 127.722, 53.814 125.624, 53.814 123.529, 53.813 121.437, 53.812 119.350, 53.811 117.267, 53.810 115.189, 53.808 113.117, 53.806 111.051, 53.803 108.992, 53.801 106.940, 53.797 104.895, 53.793 102.859, 53.789 100.832, 53.784 98.814, 53.779 96.805, 53.773 94.807, 53.766 92.820, 53.759 90.844, 53.750 88.880, 53.742 86.928, 53.732 84.989, 53.722 83.064, 53.711 81.152, 53.699 79.255, 53.686 77.372, 53.672 75.506, 53.657 73.655, 53.641 71.820, 53.624 70.003, 53.606 68.203, 53.588 66.420, 53.567 64.657, 53.546 62.912, 53.524 61.187, 53.500 59.482, 53.475 57.798, 53.449 56.135, 53.422 54.493, 53.393 52.874, 53.363 51.277, 53.331 49.703, 53.298 48.153, 53.264 46.627, 53.228 45.126, 53.191 43.650, 53.151 42.199, 53.111 40.775, 53.069 39.378, 53.025 38.008, 52.979 36.665, 52.932 35.351, 52.883 34.065, 52.832 32.805, 52.780 31.565, 52.726 30.344, 52.671 29.137, 52.615 27.942, 52.559 26.746, 52.502 25.834, 52.458 25.568, 52.445 24.647, 52.372 23.731, 52.299 22.823, 52.227 21.927, 52.155 21.047, 52.086 20.189, 52.018 19.355, 51.952 18.549, 51.889 17.776, 51.829 17.037, 51.772 16.330, 51.720 15.655, 51.672 15.014, 51.630 14.407, 51.594 13.831, 51.564 13.289, 51.542 12.780, 51.527 12.305, 51.521 11.861, 51.525 11.452, 51.537 11.075, 51.561 10.731, 51.595 10.420, 51.641 10.142, 51.699 9.898, 51.770 9.686, 51.854 9.507, 51.952 9.362, 52.065 9.249, 52.194 9.170, 52.338 9.124, 52.499 9.111, 52.677 9.131, 52.873 9.184, 53.088 9.270, 53.321 9.389, 53.574 9.542, 53.847 9.727, 54.141 9.946, 54.457 10.198, 54.795 10.483, 55.155 10.801, 55.539 11.152, 55.947 11.537, 56.380 11.955, 56.838 12.405, 57.321 12.889, 57.832 13.407, 58.369 13.957, 58.934 14.541, 59.527 15.158, 60.149 15.808, 60.801 16.491, 61.483 17.208, 62.196 17.957, 62.940 18.740, 63.716 19.556, 64.525 20.401, 65.362 21.270, 66.223 22.161, 67.104 23.068, 68.003 23.987, 68.913 24.915, 69.831 25.847, 70.754 " />
            <path fill="none" stroke-width="3.0" stroke-linecap="butt" stroke-opacity="1.0" stroke="rgb(0, 0, 0)" stroke-linejoin="bevel" d=" M 858.320, 578.214 858.320, 574.895 858.324, 569.933 858.329, 564.970 858.334, 560.008 858.338, 555.045 858.343, 550.083 858.348, 545.120 858.352, 540.158 858.357, 535.195 858.362, 530.233 858.367, 525.270 858.371, 520.308 858.376, 515.345 858.381, 510.383 858.385, 505.420 858.390, 500.458 858.395, 495.495 858.399, 490.533 858.404, 485.570 858.409, 480.608 858.413, 475.645 858.418, 470.683 858.423, 465.720 858.427, 460.758 858.432, 455.795 858.437, 450.833 858.441, 445.870 858.446, 440.908 858.451, 435.945 858.456, 430.983 858.460, 426.020 858.465, 421.058 858.470, 416.095 858.474, 411.133 858.479, 406.170 858.484, 401.208 858.488, 396.245 858.493, 391.283 858.498, 386.320 858.502, 381.358 858.507, 376.396 858.512, 371.433 858.516, 366.471 858.521, 361.508 858.526, 356.546 858.531, 351.583 858.535, 346.621 858.540, 341.658 858.545, 336.695 858.549, 331.733 858.554, 326.771 858.559, 321.808 858.563, 316.846 858.568, 311.883 858.573, 306.921 858.577, 301.958 858.582, 296.996 858.587, 292.033 858.591, 287.071 858.596, 282.108 858.601, 277.146 858.605, 272.183 858.610, 267.221 858.615, 262.258 858.620, 257.296 861.207, 257.296 863.795, 257.296 866.383, 257.296 868.970, 257.296 871.558, 257.296 874.146, 257.296 876.733, 257.296 879.321, 257.296 881.909, 257.296 884.496, 257.296 887.084, 257.296 889.672, 257.296 892.259, 257.296 894.847, 257.296 897.435, 257.296 900.022, 257.296 902.610, 257.296 905.198, 257.296 907.786, 257.296 910.373, 257.296 912.961, 257.296 915.549, 257.296 918.136, 257.296 920.724, 257.296 923.312, 257.296 925.899, 257.296 928.487, 257.296 931.075, 257.296 933.662, 257.296 936.250, 257.296 938.838, 257.296 941.425, 257.296 944.013, 257.296 946.601, 257.296 949.188, 257.296 951.776, 257.296 954.364, 257.296 956.952, 257.296 959.539, 257.296 962.127, 257.296 964.715, 257.296 967.302, 257.296 969.890, 257.296 972.478, 257.296 975.065, 257.296 977.653, 257.296 980.241, 257.296 982.828, 257.296 985.416, 257.296 988.004, 257.296 990.591, 257.296 993.179, 257.296 995.767, 257.296 998.354, 257.296 1000.942, 257.296 1003.530, 257.296 1006.118, 257.296 1008.705, 257.296 1011.293, 257.296 1013.881, 257.296 1016.468, 257.296 1019.056, 257.296 1021.644, 257.296 1024.231, 257.296 1024.231, 253.826 1024.231, 250.356 1024.231, 246.886 1024.231, 243.416 1024.231, 239.946 1024.231, 236.476 1024.231, 233.006 1024.231, 229.536 1024.231, 226.067 1024.231, 222.597 1024.231, 219.127 1024.231, 215.657 1024.231, 212.187 1024.231, 208.717 1024.231, 205.247 1024.231, 201.777 1024.231, 198.307 1024.231, 194.838 1024.231, 191.368 1024.231, 187.898 1024.231, 184.428 1024.231, 180.958 1024.231, 177.488 1024.231, 174.018 1024.231, 170.548 1024.231, 167.078 1024.231, 163.609 1024.231, 160.139 1024.231, 156.669 1024.231, 153.199 1024.231, 149.729 1024.231, 146.259 1024.231, 142.789 1024.231, 139.319 1024.231, 135.849 1024.231, 132.380 1024.231, 128.910 1024.231, 125.440 1024.231, 121.970 1024.231, 118.500 1024.231, 115.030 1024.231, 111.560 1024.231, 108.090 1024.231, 104.620 1024.231, 101.151 1024.231, 97.681 1024.231, 94.211 1024.231, 90.741 1024.231, 87.271 1024.231, 83.801 1024.231, 80.331 1024.231, 76.861 1024.231, 73.391 1024.231, 69.922 1024.231, 66.452 1024.231, 62.982 1024.231, 59.512 1024.231, 56.042 1024.231, 52.572 1024.231, 49.102 1024.231, 45.632 1024.231, 42.162 1024.231, 38.693 1024.231, 35.223 1021.644, 35.223 1019.056, 35.223 1016.468, 35.223 1013.879, 35.223 1011.290, 35.223 1008.699, 35.223 1006.108, 35.223 1003.516, 35.223 1000.922, 35.223 998.328, 35.223 995.731, 35.223 993.133, 35.223 990.532, 35.223 987.930, 35.223 985.325, 35.223 982.718, 35.223 980.108, 35.223 977.496, 35.223 974.880, 35.223 972.262, 35.223 969.640, 35.223 967.015, 35.223 964.386, 35.223 961.754, 35.223 959.118, 35.223 956.478, 35.223 953.833, 35.223 951.184, 35.223 948.531, 35.223 945.873, 35.223 943.210, 35.223 940.542, 35.223 937.869, 35.223 935.190, 35.223 932.506, 35.223 929.817, 35.223 927.121, 35.223 924.420, 35.223 921.712, 35.223 918.998, 35.223 916.278, 35.223 913.551, 35.223 910.817, 35.223 908.076, 35.223 905.328, 35.223 902.573, 35.223 899.810, 35.223 897.040, 35.223 894.262, 35.223 891.476, 35.223 888.682, 35.223 885.880, 35.223 883.070, 35.223 880.250, 35.223 877.422, 35.223 874.585, 35.223 871.740, 35.223 868.884, 35.223 866.020, 35.223 863.146, 35.223 860.262, 35.223 857.368, 35.223 854.465, 35.223 851.551, 35.223 848.627, 35.223 845.692, 35.223 842.748, 35.223 839.793, 35.223 836.829, 35.223 833.856, 35.223 830.873, 35.223 827.881, 35.223 824.880, 35.223 821.870, 35.223 818.851, 35.223 815.823, 35.223 812.788, 35.223 809.744, 35.223 806.691, 35.223 803.631, 35.223 800.564, 35.223 797.488, 35.223 794.405, 35.223 791.315, 35.223 788.218, 35.223 785.114, 35.223 782.003, 35.223 778.885, 35.223 775.761, 35.223 772.631, 35.223 769.494, 35.223 766.352, 35.223 763.204, 35.223 760.050, 35.223 756.890, 35.223 753.725, 35.223 750.556, 35.223 747.381, 35.223 744.201, 35.223 741.016, 35.223 737.827, 35.223 734.634, 35.223 731.437, 35.223 728.235, 35.223 725.030, 35.223 721.820, 35.223 718.608, 35.223 715.392, 35.223 712.172, 35.223 708.950, 35.223 705.725, 35.223 702.497, 35.223 699.266, 35.223 696.033, 35.223 692.798, 35.223 689.561, 35.223 686.322, 35.223 683.081, 35.223 679.838, 35.223 676.594, 35.223 673.349, 35.223 670.102, 35.223 666.855, 35.223 663.607, 35.223 660.358, 35.223 657.109, 35.223 653.859, 35.223 650.610, 35.223 647.360, 35.223 644.110, 35.223 640.861, 35.223 637.611, 35.223 634.362, 35.223 631.112, 35.223 627.862, 35.223 624.613, 35.223 621.363, 35.223 618.114, 35.223 614.865, 35.223 611.615, 35.223 608.366, 35.223 605.116, 35.223 601.867, 35.223 598.617, 35.223 595.368, 35.223 592.119, 35.223 588.869, 35.223 585.620, 35.223 582.371, 35.223 579.121, 35.223 575.872, 35.223 572.623, 35.223 569.374, 35.223 566.124, 35.223 562.875, 35.223 559.626, 35.223 556.377, 35.223 553.127, 35.223 549.878, 35.223 546.629, 35.223 543.380, 35.223 540.131, 35.223 536.882, 35.223 533.633, 35.223 530.383, 35.223 527.134, 35.223 523.885, 35.223 520.636, 35.223 517.387, 35.223 514.138, 35.223 510.889, 35.223 507.640, 35.223 504.391, 35.223 501.142, 35.223 497.893, 35.223 494.644, 35.223 491.395, 35.223 488.146, 35.223 484.897, 35.223 481.648, 35.223 478.399, 35.223 475.150, 35.223 471.901, 35.223 468.652, 35.223 465.402, 35.223 462.154, 35.223 458.905, 35.223 455.656, 35.223 452.407, 35.223 449.158, 35.223 445.909, 35.223 442.660, 35.223 442.660, 38.693 442.660, 42.162 442.660, 45.632 442.660, 49.102 442.660, 52.572 442.660, 56.042 442.660, 59.512 442.660, 62.982 442.660, 66.452 442.660, 69.922 442.660, 73.391 442.660, 76.861 442.660, 80.331 442.660, 83.801 442.660, 87.271 442.660, 90.741 442.660, 94.211 442.660, 97.681 442.660, 101.151 442.660, 104.620 442.660, 108.090 442.660, 111.560 442.660, 115.030 442.660, 118.500 442.660, 121.970 442.660, 125.440 442.660, 128.910 442.660, 132.380 442.660, 135.849 442.660, 139.319 442.660, 142.789 442.660, 146.259 442.660, 149.729 442.660, 153.199 442.660, 156.669 442.660, 160.139 442.660, 163.609 442.660, 167.078 442.660, 170.548 442.660, 174.018 442.660, 177.488 442.660, 180.958 442.660, 184.428 442.660, 187.898 442.660, 191.368 442.660, 194.838 442.660, 198.307 442.660, 201.777 442.660, 205.247 442.660, 208.717 442.660, 212.187 442.660, 215.657 442.660, 219.127 442.660, 222.597 442.660, 226.067 442.660, 229.536 442.660, 233.006 442.660, 236.476 442.660, 239.946 442.660, 243.416 442.660, 246.886 442.660, 250.356 442.660, 253.826 442.660, 257.296 445.909, 257.296 449.158, 257.296 452.407, 257.296 455.656, 257.296 458.905, 257.296 462.153, 257.296 465.402, 257.296 468.651, 257.296 471.900, 257.296 475.149, 257.296 478.398, 257.296 481.647, 257.296 484.896, 257.296 488.145, 257.296 491.394, 257.296 494.643, 257.296 497.892, 257.296 501.141, 257.296 504.390, 257.296 507.639, 257.296 510.888, 257.296 514.137, 257.296 517.386, 257.296 520.635, 257.296 523.884, 257.296 527.133, 257.296 530.382, 257.296 533.631, 257.296 536.880, 257.296 540.129, 257.296 543.378, 257.296 546.627, 257.296 549.876, 257.296 553.125, 257.296 556.374, 257.296 559.623, 257.296 562.872, 257.296 566.121, 257.296 569.370, 257.296 572.619, 257.296 575.868, 257.296 579.117, 257.296 582.366, 257.296 585.615, 257.296 588.864, 257.296 592.113, 257.296 595.362, 257.296 598.611, 257.296 601.860, 257.296 605.109, 257.296 608.358, 257.296 611.607, 257.296 614.856, 257.296 618.105, 257.296 621.354, 257.296 624.603, 257.296 627.852, 257.296 631.101, 257.296 634.350, 257.296 637.599, 257.296 640.848, 257.296 644.097, 257.296 647.346, 257.296 650.595, 257.296 650.589, 262.258 650.584, 267.221 650.578, 272.183 650.572, 277.146 650.567, 282.108 650.561, 287.071 650.556, 292.033 650.550, 296.996 650.544, 301.958 650.539, 306.921 650.533, 311.883 650.528, 316.846 650.522, 321.808 650.516, 326.771 650.511, 331.733 650.505, 336.695 650.500, 341.658 650.494, 346.621 650.488, 351.583 650.483, 356.546 650.477, 361.508 650.472, 366.471 650.466, 371.433 650.460, 376.396 650.455, 381.358 650.449, 386.320 650.444, 391.283 650.438, 396.245 650.432, 401.208 650.427, 406.170 650.421, 411.133 650.415, 416.095 650.410, 421.058 650.404, 426.020 650.399, 430.983 650.393, 435.945 650.387, 440.908 650.382, 445.870 650.376, 450.833 650.371, 455.795 650.365, 460.758 650.359, 465.720 650.354, 470.683 650.348, 475.645 650.343, 480.608 650.337, 485.570 650.331, 490.533 650.326, 495.495 650.320, 500.458 650.315, 505.420 650.309, 510.383 650.303, 515.345 650.298, 520.308 650.292, 525.270 650.287, 530.233 650.281, 535.195 650.275, 540.158 650.270, 545.120 650.264, 550.083 650.258, 555.045 650.253, 560.008 650.247, 564.970 650.242, 569.933 650.236, 574.895 650.236, 578.214 650.236, 581.532 650.236, 584.851 650.236, 588.169 650.236, 591.488 650.236, 594.806 650.236, 598.125 650.236, 601.443 650.236, 604.762 650.236, 608.080 650.236, 611.399 650.236, 614.717 650.236, 618.036 650.236, 621.354 650.236, 624.673 650.236, 627.991 650.236, 631.310 650.236, 634.628 650.236, 637.947 650.236, 641.265 650.236, 644.584 650.236, 647.902 650.236, 651.221 650.236, 654.539 650.236, 657.858 650.236, 661.176 650.236, 664.495 650.236, 667.813 650.236, 671.132 650.236, 674.450 650.236, 677.769 650.236, 681.087 650.236, 684.406 650.236, 687.724 650.236, 691.043 650.236, 694.361 650.236, 697.680 650.236, 700.998 650.236, 704.317 650.236, 707.635 650.236, 710.954 650.236, 714.272 650.236, 717.591 650.236, 720.909 650.236, 724.228 650.236, 727.546 650.236, 730.865 650.236, 734.183 650.236, 737.501 650.236, 740.820 650.236, 744.139 650.236, 747.457 650.236, 750.775 650.236, 754.094 650.236, 757.412 650.236, 760.731 650.236, 764.049 650.236, 767.368 650.236, 770.686 650.236, 774.005 650.236, 777.323 650.236, 780.642 650.236, 783.960 650.236, 787.279 650.236, 788.400 650.236, 789.520 650.234, 790.641 650.232, 791.761 650.229, 792.881 650.224, 794.000 650.216, 795.118 650.206, 796.236 650.194, 797.353 650.178, 798.469 650.159, 799.584 650.136, 800.697 650.108, 801.809 650.076, 802.920 650.040, 804.029 649.998, 805.137 649.950, 806.242 649.897, 807.346 649.837, 808.448 649.771, 809.548 649.697, 810.645 649.617, 811.741 649.528, 812.833 649.432, 813.924 649.327, 815.011 649.214, 816.096 649.091, 817.178 648.959, 818.257 648.817, 819.333 648.665, 820.405 648.503, 821.474 648.330, 822.540 648.145, 823.602 647.949, 824.661 647.742, 825.716 647.522, 826.767 647.289, 827.814 647.044, 828.857 646.785, 829.896 646.513, 830.930 646.226, 831.960 645.926, 832.985 645.610, 834.006 645.280, 835.022 644.935, 836.033 644.573, 837.039 644.196, 838.040 643.802, 839.036 643.391, 840.026 642.964, 841.011 642.519, 841.991 642.056, 842.965 641.575, 843.933 641.075, 844.895 640.557, 845.851 640.019, 846.801 639.462, 847.745 638.885, 848.682 638.287, 849.614 637.670, 850.538 637.031, 851.456 636.371, 852.367 635.689, 853.272 634.985, 854.169 634.259, 855.059 633.511, 855.942 632.741, 856.818 631.950, 857.687 631.139, 858.548 630.306, 859.402 629.453, 860.249 628.581, 861.088 627.689, 861.920 626.778, 862.744 625.848, 863.560 624.899, 864.369 623.932, 865.170 622.948, 865.963 621.946, 866.749 620.927, 867.526 619.891, 868.296 618.839, 869.058 617.771, 869.812 616.688, 870.557 615.589, 871.295 614.475, 872.024 613.346, 872.745 612.203, 873.458 611.046, 874.162 609.876, 874.858 608.693, 875.546 607.496, 876.225 606.287, 876.895 605.066, 877.557 603.834, 878.210 602.589, 878.855 601.334, 879.491 600.068, 880.118 598.792, 880.736 597.505, 881.345 596.209, 881.945 594.903, 882.537 593.589, 883.119 592.266, 883.692 590.934, 884.256 589.595, 884.810 588.248, 885.356 586.894, 885.892 585.533, 886.418 584.165, 886.936 582.791, 887.443 581.412, 887.942 580.027, 888.430 578.636, 888.909 577.241, 889.379 575.842, 889.838 574.439, 890.288 573.032, 890.728 571.621, 891.158 570.208, 891.578 568.791, 891.988 567.373, 892.388 565.952, 892.778 564.530, 893.158 563.107, 893.527 561.683, 893.886 560.258, 894.235 558.833, 894.574 557.408, 894.902 555.984, 895.220 554.559, 895.528 553.135, 895.826 551.710, 896.114 550.286, 896.393 548.862, 896.662 547.438, 896.922 546.015, 897.172 544.591, 897.414 543.168, 897.647 541.744, 897.871 540.321, 898.087 538.898, 898.295 537.475, 898.494 536.052, 898.686 534.629, 898.869 533.207, 899.045 531.784, 899.214 530.362, 899.375 528.940, 899.529 527.517, 899.676 526.095, 899.816 524.673, 899.950 523.251, 900.077 521.829, 900.198 520.408, 900.312 518.986, 900.420 517.565, 900.523 516.143, 900.620 514.722, 900.711 513.300, 900.797 511.879, 900.878 510.458, 900.954 509.037, 901.025 507.616, 901.091 506.195, 901.152 504.774, 901.209 503.353, 901.262 501.932, 901.311 500.512, 901.356 499.091, 901.397 497.670, 901.435 496.250, 901.469 494.829, 901.500 493.409, 901.528 491.988, 901.553 490.568, 901.575 489.147, 901.595 487.727, 901.612 486.307, 901.627 484.887, 901.639 483.466, 901.650 482.046, 901.659 480.626, 901.667 479.206, 901.672 477.786, 901.677 476.366, 901.680 474.945, 901.683 473.525, 901.685 472.105, 901.686 470.685, 901.686 469.265, 901.686 467.845, 901.686 467.845, 904.356 467.845, 907.026 467.845, 909.696 467.845, 912.366 467.845, 915.036 467.845, 917.706 467.845, 920.376 467.845, 923.046 467.845, 925.716 467.845, 928.386 467.845, 931.056 467.845, 933.726 467.845, 936.396 467.845, 939.066 467.845, 941.736 467.845, 944.406 467.845, 947.076 467.845, 949.746 467.845, 952.416 467.845, 955.086 467.845, 957.755 467.845, 960.425 467.845, 963.095 467.845, 965.765 467.845, 968.435 467.845, 971.105 467.845, 973.775 467.845, 976.445 467.845, 979.115 467.845, 981.785 467.845, 984.455 467.845, 987.125 467.845, 989.795 467.845, 992.465 467.845, 995.135 467.845, 997.805 467.845, 1000.475 467.845, 1003.145 467.845, 1005.815 467.845, 1008.485 467.845, 1011.155 467.845, 1013.825 467.845, 1016.495 467.845, 1019.164 467.845, 1021.834 467.845, 1024.504 467.845, 1027.174 467.845, 1029.844 467.845, 1032.514 467.845, 1035.184 467.845, 1037.854 467.845, 1040.524 467.845, 1043.194 467.845, 1045.864 467.845, 1048.534 467.845, 1051.204 467.845, 1053.874 467.845, 1056.544 467.845, 1059.214 467.845, 1061.884 467.845, 1064.554 467.845, 1067.224 467.845, 1069.894 467.845, 1072.564 469.265, 1072.564 470.685, 1072.564 472.105, 1072.564 473.525, 1072.564 474.945, 1072.564 476.366, 1072.564 477.786, 1072.564 479.206, 1072.564 480.626, 1072.564 482.046, 1072.564 483.466, 1072.564 484.886, 1072.564 486.306, 1072.564 487.726, 1072.564 489.146, 1072.564 490.566, 1072.564 491.986, 1072.564 493.406, 1072.564 494.826, 1072.564 496.246, 1072.564 497.667, 1072.564 499.087, 1072.564 500.507, 1072.564 501.927, 1072.564 503.347, 1072.564 504.767, 1072.564 506.187, 1072.564 507.607, 1072.564 509.027, 1072.564 510.447, 1072.564 511.867, 1072.564 513.287, 1072.564 514.707, 1072.564 516.128, 1072.564 517.548, 1072.564 518.968, 1072.564 520.388, 1072.564 521.808, 1072.564 523.228, 1072.564 524.648, 1072.564 526.068, 1072.564 527.488, 1072.564 528.908, 1072.564 530.328, 1072.564 531.748, 1072.564 533.168, 1072.564 534.588, 1072.564 536.008, 1072.564 537.429, 1072.564 538.849, 1072.564 540.269, 1072.564 541.689, 1072.564 543.109, 1072.564 544.529, 1072.564 545.949, 1072.564 547.369, 1072.564 548.789, 1072.564 550.209, 1072.564 551.629, 1072.564 553.049, 1072.564 554.469, 1072.564 555.889, 1072.564 557.310, 1072.564 558.730, 1072.564 560.150, 1072.564 561.570, 1072.564 562.990, 1072.564 564.410, 1072.564 565.830, 1072.564 567.250, 1072.564 568.670, 1072.564 570.090, 1072.564 571.510, 1072.564 572.930, 1072.564 574.350, 1072.564 575.770, 1072.564 577.190, 1072.564 578.611, 1072.564 580.031, 1072.564 581.451, 1072.564 582.871, 1072.564 584.291, 1072.564 585.711, 1072.564 587.131, 1072.564 588.551, 1072.564 589.971, 1072.564 591.391, 1072.564 592.811, 1072.564 594.231, 1072.564 595.651, 1072.564 597.071, 1072.564 598.492, 1072.564 599.912, 1072.564 601.332, 1072.564 602.752, 1072.564 604.172, 1072.564 605.592, 1072.564 607.012, 1072.564 608.432, 1072.564 609.852, 1072.564 611.272, 1072.564 612.692, 1072.564 614.112, 1072.564 615.532, 1072.564 616.952, 1072.564 618.372, 1072.564 619.793, 1072.564 621.213, 1072.564 622.633, 1072.564 624.053, 1072.564 625.473, 1072.564 626.893, 1072.564 628.313, 1072.564 629.733, 1072.564 631.153, 1072.564 632.573, 1072.564 633.993, 1072.564 635.413, 1072.564 636.833, 1072.564 638.253, 1072.564 639.674, 1072.564 641.094, 1072.564 642.514, 1072.564 643.934, 1072.564 645.354, 1072.564 646.774, 1072.564 648.194, 1072.564 649.614, 1072.564 650.098, 1070.030 650.583, 1067.497 651.069, 1064.964 651.556, 1062.433 652.046, 1059.903 652.539, 1057.376 653.035, 1054.851 653.534, 1052.329 654.039, 1049.811 654.548, 1047.296 655.063, 1044.786 655.584, 1042.280 656.112, 1039.779 656.647, 1037.284 657.190, 1034.794 657.741, 1032.311 658.302, 1029.835 658.872, 1027.366 659.451, 1024.904 660.042, 1022.451 660.644, 1020.006 661.257, 1017.570 661.883, 1015.143 662.522, 1012.726 663.174, 1010.319 663.840, 1007.923 664.520, 1005.537 665.216, 1003.163 665.928, 1000.801 666.655, 998.451 667.400, 996.114 668.162, 993.790 668.941, 991.479 669.740, 989.182 670.557, 986.900 671.394, 984.633 672.251, 982.380 673.128, 980.144 674.027, 977.923 674.948, 975.719 675.891, 973.532 676.857, 971.362 677.847, 969.210 678.861, 967.076 679.899, 964.960 680.963, 962.864 682.052, 960.787 683.168, 958.730 684.310, 956.693 685.480, 954.677 686.678, 952.682 687.904, 950.709 689.160, 948.757 690.445, 946.828 691.760, 944.922 693.107, 943.039 694.484, 941.179 695.888, 939.340 697.316, 937.519 698.763, 935.712 700.226, 933.917 701.701, 932.131 703.183, 930.351 704.670, 928.574 706.445, 927.015 708.223, 925.458 710.009, 923.907 711.807, 922.365 713.621, 920.835 715.454, 919.320 717.311, 917.822 719.195, 916.345 721.110, 914.891 723.055, 913.461 725.031, 912.053 727.037, 910.668 729.071, 909.304 731.134, 907.963 733.225, 906.642 735.344, 905.342 737.489, 904.062 739.661, 902.803 741.859, 901.562 744.081, 900.341 746.329, 899.138 748.600, 897.954 750.895, 896.787 753.213, 895.637 755.553, 894.505 757.915, 893.388 760.298, 892.288 762.702, 891.204 765.127, 890.135 767.570, 889.080 770.033, 888.040 772.514, 887.014 775.014, 886.001 777.530, 885.002 780.064, 884.015 782.613, 883.041 785.178, 882.078 787.759, 881.127 790.354, 880.186 792.963, 879.256 795.585, 878.337 798.220, 877.427 800.868, 876.526 803.527, 875.634 806.198, 874.751 808.879, 873.876 811.570, 873.008 814.271, 872.148 816.980, 871.294 819.698, 870.447 822.424, 869.605 825.157, 868.769 827.897, 867.938 830.643, 867.112 833.395, 866.290 836.152, 865.472 838.913, 864.657 841.678, 863.845 844.447, 863.036 847.218, 862.229 849.991, 861.423 852.766, 860.619 855.543, 859.815 858.320, 859.012 858.320, 857.891 858.320, 856.771 858.320, 855.650 858.320, 854.529 858.320, 853.408 858.320, 852.287 858.320, 851.166 858.320, 850.046 858.320, 848.925 858.320, 847.804 858.320, 846.683 858.320, 845.562 858.320, 844.441 858.320, 843.321 858.320, 842.200 858.320, 841.079 858.320, 839.958 858.320, 838.837 858.320, 837.716 858.320, 836.596 858.320, 835.475 858.320, 834.354 858.320, 833.233 858.320, 832.112 858.320, 830.991 858.320, 829.871 858.320, 828.750 858.320, 827.629 858.320, 826.508 858.320, 825.387 858.320, 824.266 858.320, 823.146 858.320, 822.025 858.320, 820.904 858.320, 819.783 858.320, 818.662 858.320, 817.542 858.320, 816.421 858.320, 815.300 858.320, 814.179 858.320, 813.058 858.320, 811.937 858.320, 810.816 858.320, 809.696 858.320, 808.575 858.320, 807.454 858.320, 806.333 858.320, 805.212 858.320, 804.091 858.320, 802.971 858.320, 801.850 858.320, 800.729 858.320, 799.608 858.320, 798.487 858.320, 797.366 858.320, 796.246 858.320, 795.125 858.320, 794.004 858.320, 792.883 858.320, 791.762 858.320, 790.641 858.320, 789.521 858.320, 788.400 858.320, 787.279 858.320, 783.960 858.320, 780.642 858.320, 777.323 858.320, 774.005 858.320, 770.686 858.320, 767.368 858.320, 764.049 858.320, 760.731 858.320, 757.412 858.320, 754.094 858.320, 750.775 858.320, 747.457 858.320, 744.139 858.320, 740.820 858.320, 737.501 858.320, 734.183 858.320, 730.865 858.320, 727.546 858.320, 724.228 858.320, 720.909 858.320, 717.591 858.320, 714.272 858.320, 710.954 858.320, 707.635 858.320, 704.317 858.320, 700.998 858.320, 697.680 858.320, 694.361 858.320, 691.043 858.320, 687.724 858.320, 684.406 858.320, 681.087 858.320, 677.769 858.320, 674.450 858.320, 671.132 858.320, 667.813 858.320, 664.495 858.320, 661.176 858.320, 657.858 858.320, 654.539 858.320, 651.221 858.320, 647.902 858.320, 644.584 858.320, 641.265 858.320, 637.947 858.320, 634.628 858.320, 631.310 858.320, 627.991 858.320, 624.673 858.320, 621.354 858.320, 618.036 858.320, 614.717 858.320, 611.399 858.320, 608.080 858.320, 604.762 858.320, 601.443 858.320, 598.125 858.320, 594.806 858.320, 591.488 858.320, 588.169 858.320, 584.851 858.320, 581.532 858.320, 578.214 " />
            <path fill="none" stroke-width="3.0" stroke-linecap="butt" stroke-opacity="1.0" stroke="rgb(0, 0, 0)" stroke-linejoin="bevel" d=" M 1300.257, 237.452 1305.293, 237.425 1310.328, 237.398 1315.362, 237.371 1320.394, 237.343 1325.423, 237.314 1330.448, 237.284 1335.469, 237.252 1340.485, 237.218 1345.495, 237.183 1350.499, 237.145 1355.495, 237.105 1360.484, 237.062 1365.464, 237.016 1370.434, 236.967 1375.394, 236.915 1380.344, 236.859 1385.282, 236.798 1390.207, 236.734 1395.120, 236.665 1400.019, 236.592 1404.904, 236.514 1409.773, 236.430 1414.627, 236.342 1419.463, 236.247 1424.283, 236.147 1429.084, 236.040 1433.867, 235.927 1438.631, 235.808 1443.374, 235.681 1448.096, 235.547 1452.796, 235.406 1457.474, 235.258 1462.130, 235.101 1466.761, 234.937 1471.367, 234.764 1475.949, 234.582 1480.504, 234.392 1485.033, 234.193 1489.534, 233.984 1494.007, 233.765 1498.452, 233.537 1502.866, 233.299 1507.251, 233.050 1511.604, 232.791 1515.926, 232.521 1520.215, 232.240 1524.471, 231.947 1528.693, 231.643 1532.880, 231.327 1537.032, 230.999 1541.148, 230.659 1545.227, 230.307 1549.269, 229.941 1553.272, 229.563 1557.237, 229.171 1561.161, 228.766 1565.046, 228.346 1568.888, 227.913 1572.690, 227.466 1576.449, 227.004 1580.164, 226.528 1583.835, 226.036 1587.462, 225.529 1591.043, 225.007 1594.578, 224.469 1598.068, 223.915 1601.512, 223.345 1604.912, 222.759 1608.267, 222.156 1611.580, 221.537 1614.849, 220.901 1618.076, 220.248 1621.260, 219.578 1624.404, 218.892 1627.506, 218.187 1630.569, 217.465 1633.591, 216.726 1636.574, 215.969 1639.519, 215.193 1642.425, 214.400 1645.294, 213.588 1648.125, 212.758 1650.920, 211.909 1653.679, 211.041 1656.403, 210.154 1659.091, 209.249 1661.745, 208.323 1664.365, 207.379 1666.951, 206.415 1669.505, 205.431 1672.026, 204.427 1674.516, 203.403 1676.974, 202.359 1679.402, 201.294 1681.800, 200.209 1684.167, 199.103 1686.506, 197.976 1688.816, 196.828 1691.098, 195.659 1693.353, 194.468 1695.580, 193.256 1697.781, 192.022 1699.957, 190.766 1702.106, 189.488 1704.231, 188.189 1706.332, 186.866 1708.409, 185.521 1710.462, 184.154 1712.493, 182.763 1714.502, 181.350 1716.489, 179.914 1718.455, 178.454 1720.400, 176.970 1722.325, 175.463 1724.231, 173.932 1726.118, 172.378 1727.986, 170.799 1729.836, 169.195 1731.669, 167.568 1733.485, 165.916 1735.285, 164.238 1737.069, 162.536 1738.838, 160.809 1740.592, 159.057 1742.332, 157.279 1744.058, 155.476 1745.771, 153.646 1747.472, 151.791 1749.160, 149.910 1750.836, 148.005 1752.500, 146.075 1754.151, 144.122 1755.790, 142.148 1757.416, 140.154 1759.029, 138.140 1760.630, 136.108 1762.217, 134.059 1763.791, 131.994 1765.351, 129.914 1766.898, 127.821 1768.432, 125.715 1769.951, 123.597 1771.457, 121.470 1772.949, 119.333 1774.427, 117.187 1775.890, 115.035 1777.339, 112.878 1778.773, 110.715 1780.193, 108.549 1781.598, 106.380 1782.988, 104.211 1784.363, 102.041 1785.722, 99.872 1787.067, 97.705 1788.396, 95.541 1789.709, 93.381 1791.006, 91.227 1792.288, 89.080 1793.554, 86.940 1794.803, 84.809 1796.037, 82.688 1797.254, 80.578 1798.454, 78.480 1799.638, 76.396 1800.805, 74.325 1801.955, 72.271 1803.089, 70.233 1804.204, 68.213 1805.303, 66.212 1806.384, 64.231 1807.448, 62.272 1808.494, 60.334 1809.522, 58.420 1810.532, 56.531 1811.524, 54.667 1812.498, 52.830 1813.454, 51.021 1814.391, 49.242 1815.309, 47.492 1816.209, 45.774 1817.089, 44.088 1817.951, 42.436 1818.794, 40.818 1819.617, 39.236 1820.422, 37.690 1821.209, 36.177 1821.982, 34.691 1822.743, 33.229 1823.494, 31.785 1824.238, 30.354 1824.977, 28.933 1825.713, 27.517 1826.285, 26.470 1826.855, 25.428 1827.419, 24.396 1827.976, 23.379 1828.523, 22.383 1829.057, 21.412 1829.575, 20.471 1830.075, 19.566 1830.556, 18.701 1831.016, 17.876 1831.456, 17.089 1831.875, 16.342 1832.274, 15.632 1832.652, 14.960 1833.010, 14.324 1833.347, 13.724 1833.664, 13.160 1833.960, 12.630 1834.236, 12.134 1834.492, 11.671 1834.727, 11.241 1834.942, 10.843 1835.136, 10.476 1835.310, 10.139 1835.463, 9.833 1835.596, 9.555 1835.709, 9.306 1835.801, 9.086 1835.872, 8.892 1835.923, 8.725 1835.954, 8.584 1835.964, 8.468 1835.954, 8.376 1835.923, 8.309 1835.872, 8.265 1835.801, 8.243 1835.709, 8.243 1835.596, 8.264 1835.463, 8.306 1835.310, 8.368 1835.136, 8.449 1834.942, 8.548 1834.727, 8.666 1834.492, 8.800 1834.236, 8.951 1833.960, 9.118 1833.664, 9.301 1833.347, 9.497 1833.010, 9.708 1832.652, 9.932 1832.274, 10.168 1831.875, 10.416 1831.456, 10.675 1831.016, 10.945 1830.556, 11.224 1830.075, 11.513 1829.575, 11.810 1829.056, 12.115 1828.523, 12.426 1827.976, 12.742 1827.419, 13.063 1826.855, 13.387 1826.285, 13.713 1825.713, 14.040 1824.977, 14.392 1824.238, 14.745 1823.494, 15.098 1822.743, 15.452 1821.982, 15.806 1821.209, 16.162 1820.422, 16.520 1819.617, 16.879 1818.794, 17.240 1817.951, 17.602 1817.089, 17.966 1816.209, 18.332 1815.309, 18.699 1814.391, 19.067 1813.454, 19.436 1812.498, 19.806 1811.524, 20.176 1810.532, 20.547 1809.522, 20.918 1808.494, 21.290 1807.448, 21.661 1806.384, 22.032 1805.303, 22.403 1804.204, 22.774 1803.089, 23.144 1801.955, 23.513 1800.805, 23.881 1799.638, 24.248 1798.454, 24.614 1797.254, 24.979 1796.037, 25.342 1794.804, 25.703 1793.554, 26.062 1792.288, 26.419 1791.007, 26.775 1789.709, 27.127 1788.396, 27.478 1787.067, 27.825 1785.722, 28.170 1784.363, 28.512 1782.988, 28.851 1781.598, 29.187 1780.193, 29.519 1778.773, 29.847 1777.339, 30.172 1775.890, 30.493 1774.427, 30.809 1772.949, 31.122 1771.457, 31.430 1769.951, 31.734 1768.432, 32.033 1766.898, 32.327 1765.351, 32.616 1763.791, 32.900 1762.217, 33.179 1760.630, 33.452 1759.029, 33.719 1757.416, 33.981 1755.790, 34.237 1754.151, 34.486 1752.500, 34.730 1750.836, 34.967 1749.160, 35.197 1747.472, 35.421 1745.771, 35.638 1744.058, 35.848 1742.332, 36.052 1740.592, 36.248 1738.838, 36.439 1737.069, 36.623 1735.285, 36.801 1733.485, 36.972 1731.669, 37.138 1729.836, 37.298 1727.986, 37.452 1726.118, 37.600 1724.231, 37.743 1722.325, 37.880 1720.400, 38.012 1718.455, 38.138 1716.489, 38.260 1714.502, 38.376 1712.493, 38.487 1710.462, 38.594 1708.409, 38.696 1706.332, 38.793 1704.231, 38.885 1702.106, 38.974 1699.957, 39.058 1697.781, 39.137 1695.580, 39.213 1693.353, 39.285 1691.098, 39.352 1688.816, 39.416 1686.506, 39.477 1684.167, 39.534 1681.800, 39.587 1679.402, 39.637 1676.974, 39.684 1674.516, 39.728 1672.026, 39.768 1669.505, 39.806 1666.951, 39.841 1664.365, 39.873 1661.745, 39.903 1659.091, 39.930 1656.403, 39.955 1653.679, 39.978 1650.920, 39.998 1648.125, 40.016 1645.294, 40.033 1642.425, 40.048 1639.519, 40.061 1636.574, 40.072 1633.591, 40.082 1630.569, 40.090 1627.506, 40.097 1624.404, 40.103 1621.260, 40.108 1618.076, 40.112 1614.849, 40.115 1611.580, 40.117 1608.267, 40.119 1604.912, 40.120 1601.512, 40.121 1598.068, 40.121 1594.578, 40.121 1591.043, 40.121 1587.462, 40.121 1583.835, 40.121 1580.164, 40.121 1576.449, 40.121 1572.690, 40.121 1568.888, 40.121 1565.046, 40.121 1561.161, 40.121 1557.237, 40.121 1553.272, 40.121 1549.269, 40.121 1545.227, 40.121 1541.148, 40.121 1537.032, 40.121 1532.880, 40.121 1528.693, 40.121 1524.471, 40.121 1520.215, 40.121 1515.926, 40.121 1511.604, 40.121 1507.251, 40.121 1502.866, 40.121 1498.452, 40.121 1494.007, 40.121 1489.534, 40.121 1485.033, 40.121 1480.504, 40.121 1475.949, 40.121 1471.367, 40.121 1466.761, 40.121 1462.130, 40.121 1457.474, 40.121 1452.796, 40.121 1448.096, 40.121 1443.374, 40.121 1438.631, 40.121 1433.867, 40.121 1429.084, 40.121 1424.283, 40.121 1419.463, 40.121 1414.627, 40.121 1409.773, 40.121 1404.904, 40.121 1400.019, 40.121 1395.120, 40.121 1390.207, 40.121 1385.282, 40.121 1380.344, 40.121 1375.394, 40.121 1370.434, 40.121 1365.464, 40.121 1360.484, 40.121 1355.495, 40.121 1350.499, 40.121 1345.495, 40.121 1340.485, 40.121 1335.469, 40.121 1330.448, 40.121 1325.423, 40.121 1320.394, 40.121 1315.362, 40.121 1310.328, 40.121 1305.293, 40.121 1300.257, 40.121 1300.257, 43.204 1300.257, 46.288 1300.257, 49.371 1300.257, 52.454 1300.257, 55.538 1300.257, 58.621 1300.257, 61.704 1300.257, 64.787 1300.257, 67.871 1300.257, 70.954 1300.257, 74.037 1300.257, 77.121 1300.257, 80.204 1300.257, 83.287 1300.257, 86.370 1300.257, 89.454 1300.257, 92.537 1300.257, 95.620 1300.257, 98.704 1300.257, 101.787 1300.257, 104.870 1300.257, 107.954 1300.257, 111.037 1300.257, 114.120 1300.257, 117.203 1300.257, 120.287 1300.257, 123.370 1300.257, 126.453 1300.257, 129.537 1300.257, 132.620 1300.257, 135.703 1300.257, 138.786 1300.257, 141.870 1300.257, 144.953 1300.257, 148.036 1300.257, 151.120 1300.257, 154.203 1300.257, 157.286 1300.257, 160.370 1300.257, 163.453 1300.257, 166.536 1300.257, 169.620 1300.257, 172.703 1300.257, 175.786 1300.257, 178.869 1300.257, 181.953 1300.257, 185.036 1300.257, 188.119 1300.257, 191.203 1300.257, 194.286 1300.257, 197.369 1300.257, 200.452 1300.257, 203.536 1300.257, 206.619 1300.257, 209.702 1300.257, 212.786 1300.257, 215.869 1300.257, 218.952 1300.257, 222.036 1300.257, 225.119 1300.257, 228.202 1300.257, 231.285 1300.257, 234.369 1300.257, 237.452 " />
            <path fill="none" stroke-width="3.0" stroke-linecap="butt" stroke-opacity="1.0" stroke="rgb(0, 0, 0)" stroke-linejoin="bevel" d=" M 1060.619, 390.107 1060.619, 395.712 1060.619, 398.703 1060.619, 401.695 1060.619, 404.687 1060.619, 407.678 1060.619, 410.670 1060.619, 413.662 1060.619, 416.653 1060.619, 419.645 1060.619, 422.636 1060.619, 425.628 1060.619, 428.620 1060.619, 431.611 1060.619, 434.603 1060.619, 437.594 1060.619, 440.586 1060.619, 443.578 1060.619, 446.569 1060.619, 449.561 1060.619, 452.553 1060.619, 455.544 1060.619, 458.536 1060.619, 461.527 1060.619, 464.519 1060.619, 467.511 1060.619, 470.502 1060.619, 473.494 1060.619, 476.485 1060.619, 479.477 1060.619, 482.469 1060.619, 485.460 1060.619, 488.452 1060.619, 491.444 1060.619, 494.435 1060.619, 497.427 1060.619, 500.418 1060.619, 503.410 1060.619, 506.402 1060.619, 509.393 1060.619, 512.385 1060.619, 515.377 1060.619, 518.368 1060.619, 521.360 1060.619, 524.351 1060.619, 527.343 1060.619, 530.335 1060.619, 533.326 1060.619, 536.318 1060.619, 539.309 1060.619, 542.301 1060.619, 545.293 1060.619, 548.284 1060.619, 551.276 1060.619, 554.268 1060.619, 557.259 1060.619, 560.251 1060.619, 563.242 1060.619, 566.234 1060.619, 569.226 1060.619, 572.217 1060.619, 575.209 1060.619, 578.200 1060.619, 581.192 1060.619, 584.184 1060.619, 587.175 1060.619, 590.302 1060.619, 593.428 1060.619, 596.555 1060.619, 599.682 1060.619, 602.808 1060.619, 605.935 1060.619, 609.062 1060.619, 612.188 1060.619, 615.315 1060.619, 618.441 1060.619, 621.568 1060.619, 624.695 1060.619, 627.821 1060.619, 630.948 1060.619, 634.075 1060.619, 637.201 1060.619, 640.328 1060.619, 643.454 1060.619, 646.581 1060.619, 649.708 1060.619, 652.834 1060.619, 655.961 1060.619, 659.088 1060.619, 662.214 1060.619, 665.341 1060.619, 668.467 1060.619, 671.594 1060.619, 674.721 1060.619, 677.847 1060.619, 680.974 1060.619, 684.100 1060.619, 687.227 1060.619, 690.354 1060.619, 693.480 1060.619, 696.607 1060.619, 699.734 1060.619, 702.860 1060.619, 705.987 1060.619, 709.113 1060.619, 712.240 1060.619, 715.367 1060.619, 718.493 1060.619, 721.620 1060.619, 724.747 1060.619, 727.873 1060.619, 731.000 1060.619, 734.126 1060.619, 737.253 1060.619, 740.380 1060.619, 743.506 1060.619, 746.633 1060.619, 749.759 1060.619, 752.886 1060.619, 756.013 1060.619, 759.139 1060.619, 762.266 1060.619, 765.393 1060.619, 768.519 1060.619, 771.646 1060.619, 774.772 1060.619, 777.899 1060.619, 781.026 1060.619, 784.152 1060.619, 787.279 1060.619, 788.400 1060.619, 789.521 1060.619, 790.641 1060.619, 791.762 1060.619, 792.883 1060.619, 794.004 1060.619, 795.125 1060.619, 796.246 1060.619, 797.366 1060.619, 798.487 1060.619, 799.608 1060.619, 800.729 1060.619, 801.850 1060.619, 802.971 1060.619, 804.091 1060.619, 805.212 1060.619, 806.333 1060.619, 807.454 1060.619, 808.575 1060.619, 809.696 1060.619, 810.816 1060.619, 811.937 1060.619, 813.058 1060.619, 814.179 1060.619, 815.300 1060.619, 816.421 1060.619, 817.541 1060.619, 818.662 1060.619, 819.783 1060.619, 820.904 1060.619, 822.025 1060.619, 823.146 1060.619, 824.266 1060.619, 825.387 1060.619, 826.508 1060.619, 827.629 1060.619, 828.750 1060.619, 829.871 1060.619, 830.991 1060.619, 832.112 1060.619, 833.233 1060.619, 834.354 1060.619, 835.475 1060.619, 836.596 1060.619, 837.716 1060.619, 838.837 1060.619, 839.958 1060.619, 841.079 1060.619, 842.200 1060.619, 843.321 1060.619, 844.441 1060.619, 845.562 1060.619, 846.683 1060.619, 847.804 1060.619, 848.925 1060.619, 850.046 1060.619, 851.166 1060.619, 852.287 1060.619, 853.408 1060.619, 854.529 1060.619, 855.650 1060.619, 856.771 1060.619, 857.891 1060.619, 859.012 1063.393, 859.815 1066.167, 860.619 1068.940, 861.423 1071.711, 862.229 1074.480, 863.036 1077.246, 863.845 1080.009, 864.657 1082.768, 865.472 1085.522, 866.290 1088.271, 867.112 1091.015, 867.938 1093.753, 868.769 1096.484, 869.605 1099.207, 870.447 1101.923, 871.294 1104.631, 872.148 1107.329, 873.008 1110.018, 873.876 1112.697, 874.751 1115.365, 875.634 1118.022, 876.526 1120.668, 877.427 1123.301, 878.337 1125.921, 879.256 1128.527, 880.186 1131.120, 881.126 1133.698, 882.078 1136.262, 883.040 1138.809, 884.015 1141.340, 885.002 1143.855, 886.001 1146.352, 887.014 1148.831, 888.040 1151.292, 889.080 1153.734, 890.135 1156.156, 891.204 1158.558, 892.288 1160.940, 893.388 1163.300, 894.505 1165.638, 895.637 1167.954, 896.787 1170.247, 897.953 1172.516, 899.138 1174.762, 900.341 1176.983, 901.562 1179.179, 902.803 1181.349, 904.062 1183.492, 905.342 1185.609, 906.642 1187.699, 907.963 1189.760, 909.304 1191.793, 910.668 1193.797, 912.053 1195.771, 913.461 1197.716, 914.891 1199.629, 916.345 1201.512, 917.822 1203.367, 919.320 1205.199, 920.835 1207.011, 922.365 1208.808, 923.907 1210.593, 925.458 1212.370, 927.015 1214.143, 928.574 1215.628, 930.351 1217.110, 932.131 1218.584, 933.917 1220.046, 935.712 1221.492, 937.519 1222.919, 939.340 1224.322, 941.179 1225.698, 943.039 1227.044, 944.922 1228.358, 946.828 1229.643, 948.757 1230.897, 950.709 1232.123, 952.682 1233.320, 954.677 1234.490, 956.693 1235.631, 958.730 1236.746, 960.787 1237.835, 962.864 1238.898, 964.960 1239.936, 967.076 1240.949, 969.210 1241.938, 971.362 1242.904, 973.532 1243.846, 975.719 1244.767, 977.923 1245.665, 980.144 1246.543, 982.380 1247.399, 984.633 1248.236, 986.900 1249.053, 989.182 1249.850, 991.479 1250.630, 993.790 1251.391, 996.114 1252.136, 998.451 1252.863, 1000.801 1253.574, 1003.163 1254.270, 1005.537 1254.950, 1007.923 1255.616, 1010.319 1256.268, 1012.726 1256.907, 1015.143 1257.532, 1017.570 1258.146, 1020.006 1258.747, 1022.451 1259.338, 1024.904 1259.917, 1027.366 1260.487, 1029.835 1261.047, 1032.311 1261.599, 1034.794 1262.141, 1037.284 1262.677, 1039.779 1263.204, 1042.280 1263.725, 1044.786 1264.240, 1047.296 1264.750, 1049.811 1265.254, 1052.329 1265.754, 1054.851 1266.250, 1057.376 1266.742, 1059.903 1267.232, 1062.433 1267.719, 1064.964 1268.205, 1067.497 1268.690, 1070.030 1269.174, 1072.564 1270.594, 1072.564 1272.014, 1072.564 1273.434, 1072.564 1274.855, 1072.564 1276.275, 1072.564 1277.695, 1072.564 1279.115, 1072.564 1280.535, 1072.564 1281.955, 1072.564 1283.375, 1072.564 1284.795, 1072.564 1286.215, 1072.564 1287.635, 1072.564 1289.055, 1072.564 1290.475, 1072.564 1291.895, 1072.564 1293.315, 1072.564 1294.736, 1072.564 1296.156, 1072.564 1297.576, 1072.564 1298.996, 1072.564 1300.416, 1072.564 1301.836, 1072.564 1303.256, 1072.564 1304.676, 1072.564 1306.096, 1072.564 1307.516, 1072.564 1308.936, 1072.564 1310.356, 1072.564 1311.776, 1072.564 1313.196, 1072.564 1314.617, 1072.564 1316.036, 1072.564 1317.457, 1072.564 1318.877, 1072.564 1320.297, 1072.564 1321.717, 1072.564 1323.137, 1072.564 1324.557, 1072.564 1325.977, 1072.564 1327.397, 1072.564 1328.817, 1072.564 1330.237, 1072.564 1331.657, 1072.564 1333.078, 1072.564 1334.498, 1072.564 1335.918, 1072.564 1337.338, 1072.564 1338.758, 1072.564 1340.178, 1072.564 1341.598, 1072.564 1343.018, 1072.564 1344.438, 1072.564 1345.858, 1072.564 1347.278, 1072.564 1348.698, 1072.564 1350.118, 1072.564 1351.538, 1072.564 1352.958, 1072.564 1354.379, 1072.564 1355.799, 1072.564 1357.219, 1072.564 1358.639, 1072.564 1360.059, 1072.564 1361.479, 1072.564 1362.899, 1072.564 1364.319, 1072.564 1365.739, 1072.564 1367.159, 1072.564 1368.579, 1072.564 1369.999, 1072.564 1371.419, 1072.564 1372.839, 1072.564 1374.259, 1072.564 1375.680, 1072.564 1377.100, 1072.564 1378.520, 1072.564 1379.940, 1072.564 1381.360, 1072.564 1382.780, 1072.564 1384.200, 1072.564 1385.620, 1072.564 1387.040, 1072.564 1388.460, 1072.564 1389.880, 1072.564 1391.300, 1072.564 1392.720, 1072.564 1394.141, 1072.564 1395.561, 1072.564 1396.981, 1072.564 1398.401, 1072.564 1399.821, 1072.564 1401.241, 1072.564 1402.661, 1072.564 1404.081, 1072.564 1405.501, 1072.564 1406.921, 1072.564 1408.341, 1072.564 1409.761, 1072.564 1411.181, 1072.564 1412.601, 1072.564 1414.021, 1072.564 1415.442, 1072.564 1416.862, 1072.564 1418.282, 1072.564 1419.702, 1072.564 1421.122, 1072.564 1422.542, 1072.564 1423.962, 1072.564 1425.382, 1072.564 1426.802, 1072.564 1428.222, 1072.564 1429.642, 1072.564 1431.062, 1072.564 1432.482, 1072.564 1433.902, 1072.564 1435.322, 1072.564 1436.743, 1072.564 1438.163, 1072.564 1439.583, 1072.564 1441.003, 1072.564 1442.423, 1072.564 1443.843, 1072.564 1445.263, 1072.564 1446.683, 1072.564 1448.103, 1072.564 1449.523, 1072.564 1450.943, 1072.564 1450.943, 1069.894 1450.943, 1067.224 1450.943, 1064.554 1450.943, 1061.884 1450.943, 1059.214 1450.943, 1056.544 1450.943, 1053.874 1450.943, 1051.204 1450.943, 1048.534 1450.943, 1045.864 1450.943, 1043.194 1450.943, 1040.524 1450.943, 1037.854 1450.943, 1035.184 1450.943, 1032.514 1450.943, 1029.844 1450.943, 1027.174 1450.943, 1024.504 1450.943, 1021.834 1450.943, 1019.164 1450.943, 1016.495 1450.943, 1013.825 1450.943, 1011.155 1450.943, 1008.485 1450.943, 1005.815 1450.943, 1003.145 1450.943, 1000.475 1450.943, 997.805 1450.943, 995.135 1450.943, 992.465 1450.943, 989.795 1450.943, 987.125 1450.943, 984.455 1450.943, 981.785 1450.943, 979.115 1450.943, 976.445 1450.943, 973.775 1450.943, 971.105 1450.943, 968.435 1450.943, 965.765 1450.943, 963.095 1450.943, 960.425 1450.943, 957.755 1450.943, 955.086 1450.943, 952.416 1450.943, 949.746 1450.943, 947.076 1450.943, 944.406 1450.943, 941.736 1450.943, 939.066 1450.943, 936.396 1450.943, 933.726 1450.943, 931.056 1450.943, 928.386 1450.943, 925.716 1450.943, 923.046 1450.943, 920.376 1450.943, 917.706 1450.943, 915.036 1450.943, 912.366 1450.943, 909.696 1450.943, 907.026 1450.943, 904.356 1450.943, 901.686 1449.523, 901.686 1448.103, 901.686 1446.683, 901.686 1445.263, 901.685 1443.843, 901.683 1442.423, 901.680 1441.003, 901.677 1439.583, 901.672 1438.163, 901.667 1436.742, 901.659 1435.322, 901.650 1433.902, 901.639 1432.482, 901.627 1431.062, 901.612 1429.642, 901.595 1428.222, 901.575 1426.802, 901.553 1425.382, 901.528 1423.962, 901.500 1422.542, 901.469 1421.122, 901.435 1419.702, 901.397 1418.282, 901.356 1416.862, 901.311 1415.442, 901.262 1414.021, 901.209 1412.601, 901.152 1411.181, 901.091 1409.761, 901.025 1408.341, 900.954 1406.921, 900.878 1405.501, 900.797 1404.081, 900.711 1402.661, 900.620 1401.241, 900.523 1399.821, 900.420 1398.401, 900.312 1396.981, 900.198 1395.561, 900.077 1394.141, 899.950 1392.720, 899.816 1391.300, 899.676 1389.880, 899.529 1388.460, 899.375 1387.040, 899.214 1385.620, 899.045 1384.200, 898.869 1382.780, 898.686 1381.360, 898.494 1379.940, 898.295 1378.520, 898.087 1377.100, 897.871 1375.680, 897.647 1374.259, 897.414 1372.839, 897.172 1371.419, 896.922 1369.999, 896.662 1368.579, 896.393 1367.159, 896.114 1365.739, 895.826 1364.319, 895.528 1362.899, 895.220 1361.479, 894.902 1360.059, 894.574 1358.639, 894.235 1357.219, 893.886 1355.800, 893.527 1354.382, 893.158 1352.966, 892.778 1351.551, 892.388 1350.138, 891.988 1348.728, 891.578 1347.320, 891.158 1345.915, 890.728 1344.514, 890.288 1343.117, 889.838 1341.724, 889.379 1340.335, 888.909 1338.951, 888.430 1337.572, 887.942 1336.199, 887.443 1334.831, 886.936 1333.470, 886.418 1332.115, 885.892 1330.767, 885.356 1329.427, 884.810 1328.093, 884.256 1326.768, 883.692 1325.451, 883.119 1324.143, 882.536 1322.843, 881.945 1321.553, 881.345 1320.272, 880.736 1319.002, 880.118 1317.741, 879.491 1316.492, 878.855 1315.253, 878.210 1314.025, 877.557 1312.810, 876.895 1311.606, 876.225 1310.415, 875.546 1309.236, 874.858 1308.070, 874.162 1306.918, 873.458 1305.780, 872.745 1304.655, 872.024 1303.545, 871.295 1302.450, 870.557 1301.370, 869.811 1300.305, 869.058 1299.256, 868.296 1298.224, 867.526 1297.207, 866.749 1296.208, 865.963 1295.225, 865.170 1294.261, 864.369 1293.314, 863.560 1292.385, 862.744 1291.475, 861.920 1290.584, 861.088 1289.711, 860.249 1288.859, 859.402 1288.026, 858.548 1287.214, 857.687 1286.422, 856.818 1285.651, 855.942 1284.902, 855.059 1284.174, 854.169 1283.468, 853.272 1282.784, 852.367 1282.121, 851.456 1281.479, 850.538 1280.857, 849.614 1280.256, 848.682 1279.674, 847.745 1279.112, 846.801 1278.570, 845.851 1278.046, 844.895 1277.541, 843.933 1277.054, 842.964 1276.585, 841.991 1276.133, 841.011 1275.699, 840.026 1275.281, 839.036 1274.880, 838.040 1274.495, 837.039 1274.126, 836.033 1273.772, 835.022 1273.433, 834.006 1273.109, 832.985 1272.800, 831.960 1272.505, 830.930 1272.223, 829.895 1271.955, 828.857 1271.699, 827.814 1271.457, 826.767 1271.227, 825.716 1271.008, 824.661 1270.802, 823.602 1270.607, 822.540 1270.422, 821.474 1270.249, 820.405 1270.086, 819.332 1269.932, 818.257 1269.789, 817.178 1269.654, 816.096 1269.529, 815.011 1269.412, 813.923 1269.303, 812.833 1269.203, 811.741 1269.109, 810.645 1269.023, 809.548 1268.944, 808.448 1268.872, 807.346 1268.805, 806.242 1268.745, 805.137 1268.690, 804.028 1268.640, 802.915 1268.595, 801.792 1268.554, 800.655 1268.517, 799.502 1268.485, 798.328 1268.455, 797.129 1268.429, 795.902 1268.406, 794.640 1268.384, 793.326 1268.365, 791.941 1268.348, 790.466 1268.332, 788.880 1268.317, 787.165 1268.303, 785.300 1268.289, 783.267 1268.275, 781.053 1268.261, 778.670 1268.248, 776.138 1268.234, 773.477 1268.220, 770.706 1268.206, 767.845 1268.192, 764.914 1268.178, 761.932 1268.165, 758.915 1268.151, 755.872 1268.137, 752.804 1268.123, 749.718 1268.109, 746.615 1268.095, 743.501 1268.082, 740.379 1268.068, 737.253 1268.054, 734.126 1268.040, 731.000 1268.026, 727.873 1268.012, 724.747 1267.999, 721.620 1267.985, 718.493 1267.971, 715.367 1267.957, 712.240 1267.943, 709.113 1267.930, 705.987 1267.916, 702.860 1267.902, 699.734 1267.888, 696.607 1267.874, 693.480 1267.860, 690.354 1267.847, 687.227 1267.833, 684.100 1267.819, 680.974 1267.805, 677.847 1267.791, 674.721 1267.777, 671.594 1267.764, 668.467 1267.750, 665.341 1267.736, 662.214 1267.722, 659.088 1267.708, 655.961 1267.694, 652.834 1267.681, 649.708 1267.667, 646.581 1267.653, 643.454 1267.639, 640.328 1267.625, 637.201 1267.611, 634.075 1267.598, 630.948 1267.584, 627.821 1267.570, 624.695 1267.556, 621.568 1267.542, 618.441 1267.528, 615.315 1267.515, 612.188 1267.501, 609.062 1267.487, 605.935 1267.473, 602.808 1267.459, 599.682 1267.445, 596.555 1267.432, 593.428 1267.418, 590.302 1267.404, 587.175 1270.585, 587.175 1273.766, 587.175 1276.947, 587.175 1280.128, 587.175 1283.309, 587.175 1286.490, 587.175 1289.671, 587.175 1292.852, 587.175 1296.033, 587.175 1299.214, 587.175 1302.395, 587.175 1305.576, 587.175 1308.756, 587.175 1311.937, 587.175 1315.118, 587.175 1318.299, 587.175 1321.480, 587.175 1324.661, 587.175 1327.842, 587.175 1331.023, 587.175 1334.204, 587.175 1337.385, 587.175 1340.566, 587.175 1343.747, 587.175 1346.928, 587.175 1350.109, 587.175 1353.290, 587.175 1356.471, 587.175 1359.652, 587.175 1362.833, 587.175 1366.014, 587.175 1369.195, 587.175 1372.376, 587.175 1375.557, 587.175 1378.738, 587.175 1381.919, 587.175 1385.099, 587.175 1388.281, 587.175 1391.461, 587.175 1394.642, 587.175 1397.823, 587.175 1401.004, 587.175 1404.185, 587.175 1407.366, 587.175 1410.547, 587.175 1413.728, 587.175 1416.909, 587.175 1420.090, 587.175 1423.271, 587.175 1426.452, 587.175 1429.633, 587.175 1432.814, 587.175 1435.995, 587.175 1439.176, 587.175 1442.357, 587.175 1445.538, 587.175 1448.719, 587.175 1451.900, 587.175 1455.081, 587.175 1458.262, 587.175 1461.443, 587.175 1464.623, 587.175 1467.804, 587.175 1470.985, 587.175 1470.985, 584.184 1470.985, 581.192 1470.985, 578.200 1470.985, 575.209 1470.985, 572.217 1470.985, 569.226 1470.985, 566.234 1470.985, 563.242 1470.985, 560.251 1470.985, 557.259 1470.985, 554.268 1470.985, 551.276 1470.985, 548.284 1470.985, 545.293 1470.985, 542.301 1470.985, 539.309 1470.985, 536.318 1470.985, 533.326 1470.985, 530.335 1470.985, 527.343 1470.985, 524.351 1470.985, 521.360 1470.985, 518.368 1470.985, 515.377 1470.985, 512.385 1470.985, 509.393 1470.985, 506.402 1470.985, 503.410 1470.985, 500.418 1470.985, 497.427 1470.985, 494.435 1470.985, 491.444 1470.985, 488.452 1470.985, 485.460 1470.985, 482.469 1470.985, 479.477 1470.985, 476.485 1470.985, 473.494 1470.985, 470.502 1470.985, 467.511 1470.985, 464.519 1470.985, 461.527 1470.985, 458.536 1470.985, 455.544 1470.985, 452.553 1470.985, 449.561 1470.985, 446.569 1470.985, 443.578 1470.985, 440.586 1470.985, 437.594 1470.985, 434.603 1470.985, 431.611 1470.985, 428.620 1470.985, 425.628 1470.985, 422.636 1470.985, 419.645 1470.985, 416.653 1470.985, 413.662 1470.985, 410.670 1470.985, 407.678 1470.985, 404.687 1470.985, 401.695 1470.985, 398.703 1470.985, 395.712 1467.804, 395.712 1464.624, 395.712 1461.443, 395.712 1458.262, 395.712 1455.081, 395.712 1451.900, 395.712 1448.719, 395.712 1445.538, 395.712 1442.357, 395.712 1439.176, 395.712 1435.995, 395.712 1432.814, 395.712 1429.633, 395.712 1426.452, 395.712 1423.271, 395.712 1420.090, 395.712 1416.909, 395.712 1413.728, 395.712 1410.547, 395.712 1407.366, 395.712 1404.185, 395.712 1401.004, 395.712 1397.823, 395.712 1394.642, 395.712 1391.461, 395.712 1388.281, 395.712 1385.099, 395.712 1381.919, 395.712 1378.738, 395.712 1375.557, 395.712 1372.376, 395.712 1369.195, 395.712 1366.014, 395.712 1362.833, 395.712 1359.652, 395.712 1356.471, 395.712 1353.290, 395.712 1350.109, 395.712 1346.928, 395.712 1343.747, 395.712 1340.566, 395.712 1337.385, 395.712 1334.204, 395.712 1331.023, 395.712 1327.842, 395.712 1324.661, 395.712 1321.480, 395.712 1318.299, 395.712 1315.118, 395.712 1311.937, 395.712 1308.756, 395.712 1305.576, 395.712 1302.395, 395.712 1299.214, 395.712 1296.033, 395.712 1292.852, 395.712 1289.671, 395.712 1286.490, 395.712 1283.309, 395.712 1280.128, 395.712 1276.947, 395.712 1273.766, 395.712 1270.585, 395.712 1267.404, 395.712 1267.404, 390.107 1267.404, 384.501 1267.404, 378.896 1267.404, 373.291 1267.404, 367.685 1267.404, 362.080 1267.404, 356.475 1267.404, 350.869 1267.404, 345.264 1267.404, 339.659 1267.404, 334.053 1267.404, 328.448 1267.404, 322.843 1267.404, 317.237 1267.404, 311.632 1267.404, 306.027 1267.404, 300.421 1267.404, 294.816 1267.404, 289.211 1267.404, 283.605 1267.404, 278.000 1267.404, 272.395 1267.404, 266.789 1267.404, 261.184 1267.404, 255.579 1267.404, 249.973 1267.404, 244.368 1267.404, 238.763 1267.404, 233.157 1267.404, 227.552 1267.404, 221.947 1267.404, 216.341 1267.404, 210.736 1267.404, 205.131 1267.404, 199.525 1267.404, 193.920 1267.404, 188.315 1267.404, 182.709 1267.404, 177.104 1267.404, 171.499 1267.404, 165.893 1267.404, 160.288 1267.404, 154.683 1267.404, 149.077 1267.404, 143.472 1267.404, 137.867 1267.404, 132.261 1267.404, 126.656 1267.404, 121.051 1267.404, 115.445 1267.404, 109.840 1267.404, 104.235 1267.404, 98.629 1267.404, 93.024 1267.404, 87.419 1267.404, 81.813 1267.404, 76.208 1267.404, 70.603 1267.404, 64.997 1267.404, 59.392 1267.404, 53.787 1267.404, 48.182 1267.404, 42.576 1267.404, 36.971 1264.173, 36.971 1260.942, 36.971 1257.711, 36.971 1254.480, 36.971 1251.249, 36.971 1248.018, 36.971 1244.787, 36.971 1241.556, 36.971 1238.325, 36.971 1235.094, 36.971 1231.863, 36.971 1228.632, 36.971 1225.401, 36.971 1222.170, 36.971 1218.939, 36.971 1215.708, 36.971 1212.477, 36.971 1209.246, 36.971 1206.015, 36.971 1202.784, 36.971 1199.553, 36.971 1196.322, 36.971 1193.091, 36.971 1189.859, 36.971 1186.628, 36.971 1183.397, 36.971 1180.166, 36.971 1176.935, 36.971 1173.704, 36.971 1170.473, 36.971 1167.242, 36.971 1164.011, 36.971 1160.780, 36.971 1157.549, 36.971 1154.318, 36.971 1151.087, 36.971 1147.856, 36.971 1144.625, 36.971 1141.394, 36.971 1138.163, 36.971 1134.932, 36.971 1131.701, 36.971 1128.470, 36.971 1125.239, 36.971 1122.008, 36.971 1118.777, 36.971 1115.546, 36.971 1112.315, 36.971 1109.084, 36.971 1105.853, 36.971 1102.622, 36.971 1099.391, 36.971 1096.160, 36.971 1092.929, 36.971 1089.698, 36.971 1086.467, 36.971 1083.236, 36.971 1080.005, 36.971 1076.774, 36.971 1073.543, 36.971 1070.312, 36.971 1067.081, 36.971 1063.850, 36.971 1060.619, 36.971 1060.619, 42.576 1060.619, 48.182 1060.619, 53.787 1060.619, 59.392 1060.619, 64.997 1060.619, 70.603 1060.619, 76.208 1060.619, 81.813 1060.619, 87.419 1060.619, 93.024 1060.619, 98.629 1060.619, 104.235 1060.619, 109.840 1060.619, 115.445 1060.619, 121.051 1060.619, 126.656 1060.619, 132.261 1060.619, 137.867 1060.619, 143.472 1060.619, 149.077 1060.619, 154.683 1060.619, 160.288 1060.619, 165.893 1060.619, 171.499 1060.619, 177.104 1060.619, 182.709 1060.619, 188.315 1060.619, 193.920 1060.619, 199.525 1060.619, 205.131 1060.619, 210.736 1060.619, 216.341 1060.619, 221.947 1060.619, 227.552 1060.619, 233.157 1060.619, 238.763 1060.619, 244.368 1060.619, 249.973 1060.619, 255.579 1060.619, 261.184 1060.619, 266.789 1060.619, 272.395 1060.619, 278.000 1060.619, 283.605 1060.619, 289.211 1060.619, 294.816 1060.619, 300.421 1060.619, 306.027 1060.619, 311.632 1060.619, 317.237 1060.619, 322.843 1060.619, 328.448 1060.619, 334.053 1060.619, 339.659 1060.619, 345.264 1060.619, 350.869 1060.619, 356.475 1060.619, 362.080 1060.619, 367.685 1060.619, 373.291 1060.619, 378.896 1060.619, 384.501 1060.619, 390.107 " />
        </g>
    </g>
</svg>
