<?xml version="1.0" encoding="UTF-8" standalone="no"?>
<!-- Created with Inkscape (http://www.inkscape.org/) -->

<svg
   width="1920"
   height="1080"
   viewBox="0 0 507.99999 285.75"
   version="1.1"
   id="svg1"
   xml:space="preserve"
   xmlns:xlink="http://www.w3.org/1999/xlink"
   xmlns="http://www.w3.org/2000/svg"
   xmlns:svg="http://www.w3.org/2000/svg"><defs
     id="defs1"><linearGradient
       id="linearGradient4"><stop
         style="stop-color:#2f2f2f;stop-opacity:1;"
         offset="0.24464831"
         id="stop5" /><stop
         style="stop-color:#4b4b4b;stop-opacity:1;"
         offset="0.62232417"
         id="stop7" /></linearGradient><linearGradient
       xlink:href="#linearGradient4"
       id="linearGradient6"
       x1="922.53674"
       y1="1455.3253"
       x2="922.53674"
       y2="-374.51819"
       gradientUnits="userSpaceOnUse" /><linearGradient
       xlink:href="#linearGradient4"
       id="linearGradient16"
       gradientUnits="userSpaceOnUse"
       x1="922.53674"
       y1="1455.3253"
       x2="922.53674"
       y2="-374.51819"
       gradientTransform="translate(3.816064)" /><linearGradient
       xlink:href="#linearGradient4"
       id="linearGradient17"
       gradientUnits="userSpaceOnUse"
       x1="922.53674"
       y1="1455.3253"
       x2="922.53674"
       y2="-374.51819"
       gradientTransform="translate(3.816064)" /><linearGradient
       xlink:href="#linearGradient4"
       id="linearGradient18"
       gradientUnits="userSpaceOnUse"
       x1="922.53674"
       y1="1455.3253"
       x2="922.53674"
       y2="-374.51819"
       gradientTransform="translate(3.816064)" /><linearGradient
       xlink:href="#linearGradient4"
       id="linearGradient19"
       gradientUnits="userSpaceOnUse"
       x1="922.53674"
       y1="1455.3253"
       x2="922.53674"
       y2="-374.51819"
       gradientTransform="translate(3.816064)" /></defs><g
     id="layer1"><g
       id="strokes"
       transform="matrix(0.26458333,0,0,0.26458333,-1.3229728,-0.10367553)"
       style="fill:url(#linearGradient6);fill-opacity:1"><path
         fill="none"
         stroke-width="3"
         stroke-linecap="butt"
         stroke-opacity="1"
         stroke="#000000"
         stroke-linejoin="bevel"
         d="m 29.663064,70.754 1.199,1.225 1.204,1.228 1.21,1.237 1.222,1.247 1.236,1.262 1.254,1.281 1.276,1.304 1.301,1.329 1.33,1.359 1.359,1.387 1.387,1.416 1.414,1.442 1.441,1.469 1.468,1.494 1.494,1.517 1.52,1.541 1.544,1.563 1.569,1.584 1.592,1.605 1.617,1.623 1.639,1.642 1.661,1.66 1.683,1.675 1.705,1.691 1.725,1.706 1.746,1.719 1.765,1.731 1.785,1.743 1.804,1.753 1.821,1.763 1.84,1.772 1.856,1.779 1.873,1.786 1.889,1.792 1.905,1.796 1.92,1.8 1.935,1.803 1.948,1.805 1.963,1.806 1.975,1.805 1.987,1.805 2,1.802 2.011,1.8 2.021996,1.795 2.032,1.791 2.042,1.785 2.052,1.778 2.06,1.77 2.069,1.761 2.077,1.751 2.083,1.741 2.091,1.729 2.097,1.717 2.103,1.702 2.107,1.688 2.113,1.673 2.116,1.656 2.121,1.639 2.123,1.62 2.126,1.6 2.128,1.581 2.13,1.558 2.13,1.537 2.131,1.513 2.132,1.489 2.131,1.465 2.131,1.441 2.131,1.418 2.132,1.394 2.131,1.371 2.131,1.348 2.131,1.324 2.131,1.303 2.131,1.279 2.13,1.258 2.131,1.235 2.131,1.214 2.13,1.192 2.13,1.17 2.13,1.15 2.13,1.128 2.13,1.107 2.13,1.087 2.13,1.067 2.129,1.046 2.129,1.026 2.129,1.006 2.129,0.987 2.128,0.967 2.128,0.948 2.128,0.929 2.128,0.91 2.128,0.892 2.127,0.873 2.127,0.855 2.127,0.837 2.126,0.82 2.126,0.801 2.126,0.784 2.125,0.767 2.125,0.75 2.125,0.734 2.125,0.716 2.124,0.701 2.123,0.684 2.124,0.668 2.123,0.652 2.122,0.637 2.122,0.622 2.122,0.606 2.121,0.591 2.121,0.577 2.12,0.562 2.12,0.547 2.12,0.534 2.119,0.519 2.118,0.506 2.118,0.493 2.118,0.478 2.117,0.466 2.117,0.453 2.116,0.44 2.115,0.428 2.115,0.415 2.114,0.403 2.114,0.391 2.113,0.38 2.113,0.367 2.112,0.357 2.111,0.345 2.111,0.335 2.111,0.324 2.109,0.313 2.11,0.302 2.108,0.293 2.108,0.282 2.108,0.273 2.107,0.262 2.107,0.253 2.106,0.244 2.106,0.235 2.105,0.225 2.105,0.217 2.104,0.208 2.104,0.199 2.103,0.192 2.103,0.183 2.103,0.175 2.102,0.167 2.101,0.16 2.102,0.152 2.101,0.145 2.1,0.138 2.101,0.131 2.1,0.125 2.099,0.118 2.099,0.111 2.099,0.105 2.099,0.1 2.098,0.093 2.098,0.088 2.098,0.082 2.097,0.077 2.097,0.072 2.097,0.067 2.097,0.062 2.096,0.057 2.097,0.053 2.095,0.049 2.096,0.045 2.096,0.041 2.095,0.037 2.095,0.034 2.095,0.03 2.095,0.027 2.095,0.024 2.094,0.021 2.095,0.019 2.094,0.016 2.094,0.014 2.094,0.012 2.094,0.009 2.094,0.008 2.093,0.007 2.094,0.005 2.094,0.003 2.093,0.003 2.094,0.002 2.093,0.001 2.094,0.001 h 2.093 2.093 v -2.872 -2.872 -2.872 -2.872 -2.872 -2.872 -2.872 -2.872 -2.872 -2.872 -2.872 -2.872 -2.872 -2.872 -2.872 -2.872 -2.872 -2.872 -2.872 -2.872 -2.872 -2.872 -2.872 -2.872 -2.872 -2.872 -2.872 -2.872 -2.872 -2.872 -2.872 -2.871 -2.873 -2.871 -2.872 -2.872 -2.872 -2.872 -2.872 -2.872 -2.872 -2.872 -2.872 -2.872 -2.872 -2.872 -2.872 -2.872 -2.872 -2.872 -2.872 -2.872 -2.872 -2.872 -2.872 -2.872 -2.872 -2.872 -2.872 -2.872 -2.872 -2.872 -2.872 -2.872 h -2.144 -2.144 -2.144 -2.143 -2.144 -2.144 -2.144 -2.144 -2.144 -2.143 -2.144 -2.143 -2.143 -2.143 -2.144 -2.142 -2.143 -2.143 -2.142 -2.142 -2.143 -2.141 -2.142 -2.141 -2.142 -2.141 -2.141 -2.14 -2.14 -2.14 -2.14 -2.139 -2.14 -2.138 -2.139 -2.138 -2.138 -2.137 -2.138 -2.136 -2.137 -2.136 -2.136 -2.135 -2.135 -2.134 -2.134 -2.134 -2.133 -2.132 -2.133 -2.131 -2.132 -2.131 -2.13 -2.13 -2.129 -2.129 -2.128 -2.127 -2.127 -2.127 -2.126 -2.125 -2.125 -2.124 -2.124 -2.123 -2.123 -2.121 -2.122 -2.121 -2.12 -2.12 -2.12 -2.118 -2.119 -2.118 -2.117 -2.117 -2.117 -2.116 -2.116 -2.115 -2.115 -2.114 -2.114 -2.114 -2.114 -2.112 -2.113 -2.112 -2.112 -2.112 -2.111 -2.111 -2.111 -2.111 -2.11 -2.11 -2.109 -2.11 -2.109 -2.109 -2.108 -2.109 -2.108 -2.108 -2.108 -2.108 -2.107 -2.108 -2.107 -2.107 -2.107 -2.107 -2.107 -2.106 -2.107 -2.107 -2.106 -2.106 -2.107 -2.106 -2.106 -2.106 -2.106 -2.106 -2.107 -2.105 -2.105 -2.103 l -2.101,-10e-4 h -2.098 l -2.095,-10e-4 -2.092,-0.001 -2.087,-10e-4 -2.083,-10e-4 -2.078,-0.002 -2.072,-0.002 -2.066,-0.003 -2.059,-0.002 -2.052,-0.004 -2.045,-0.004 -2.036,-0.004 -2.027,-0.005 -2.018,-0.005 -2.009,-0.006 -1.997996,-0.007 -1.987,-0.007 -1.976,-0.009 -1.964,-0.008 -1.952,-0.01 -1.939,-0.01 -1.925,-0.011 -1.912,-0.012 -1.897,-0.013 -1.883,-0.014 -1.866,-0.015 -1.851,-0.016 -1.835,-0.017 -1.817,-0.018 -1.8,-0.018 -1.783,-0.021 -1.763,-0.021 -1.745,-0.022 -1.725,-0.024 -1.705,-0.025 -1.684,-0.026 -1.663,-0.027 -1.642,-0.029 -1.619,-0.03 -1.597,-0.032 -1.574,-0.033 -1.55,-0.034 -1.526,-0.036 -1.501,-0.037 -1.476,-0.04 -1.451,-0.04 -1.424,-0.042 -1.397,-0.044 -1.37,-0.046 -1.343,-0.047 -1.314,-0.049 -1.286,-0.051 -1.26,-0.052 -1.24,-0.054 -1.221,-0.055 -1.207,-0.056 -1.195,-0.056 -1.196,-0.057 -0.912,-0.044 -0.266,-0.013 -0.921,-0.073 -0.916,-0.073 -0.908,-0.072 -0.896,-0.072 -0.88,-0.069 -0.858,-0.068 -0.834,-0.066 -0.806,-0.063 -0.773,-0.06 -0.739,-0.057 -0.707,-0.052 -0.675,-0.048 -0.641,-0.042 -0.607,-0.036 -0.576,-0.03 -0.542,-0.022 -0.509,-0.015 -0.475,-0.006 -0.444,0.004 -0.409,0.012 -0.377,0.024 -0.344,0.034 -0.311,0.046 -0.278,0.058 -0.244,0.071 -0.212,0.084 -0.179,0.098 -0.145,0.113 -0.113,0.129 -0.079,0.144 -0.046,0.161 -0.013,0.178 0.02,0.196 0.053,0.215 0.086,0.233 0.119,0.253 0.153,0.273 0.185,0.294 0.219,0.316 0.252,0.338 0.285,0.36 0.318,0.384 0.351,0.408 0.385,0.433 0.418,0.458 0.45,0.483 0.484,0.511 0.518,0.537 0.55,0.565 0.584,0.593 0.617,0.622 0.65,0.652 0.683,0.682 0.717,0.713 0.749,0.744 0.783,0.776 0.816,0.809 0.845,0.837 0.869,0.861 0.891,0.881 0.907,0.899 0.919,0.91 0.928,0.918 0.932,0.923"
         id="path1"
         style="fill:url(#linearGradient16);fill-opacity:1" /><path
         fill="none"
         stroke-width="3"
         stroke-linecap="butt"
         stroke-opacity="1"
         stroke="#000000"
         stroke-linejoin="bevel"
         d="m 862.13606,578.214 v -3.319 l 0.004,-4.962 0.005,-4.963 0.005,-4.962 0.004,-4.963 0.005,-4.962 0.005,-4.963 0.004,-4.962 0.005,-4.963 0.005,-4.962 0.005,-4.963 0.004,-4.962 0.005,-4.963 0.005,-4.962 0.004,-4.963 0.005,-4.962 0.005,-4.963 0.004,-4.962 0.005,-4.963 0.005,-4.962 0.004,-4.963 0.005,-4.962 0.005,-4.963 0.004,-4.962 0.005,-4.963 0.005,-4.962 0.004,-4.963 0.005,-4.962 0.005,-4.963 0.005,-4.962 0.004,-4.963 0.005,-4.962 0.005,-4.963 0.004,-4.962 0.005,-4.963 0.005,-4.962 0.004,-4.963 0.005,-4.962 0.005,-4.963 0.004,-4.962 0.005,-4.962 0.005,-4.963 0.004,-4.962 0.005,-4.963 0.005,-4.962 0.005,-4.963 0.004,-4.962 0.005,-4.963 0.005,-4.963 0.004,-4.962 0.005,-4.962 0.005,-4.963 0.004,-4.962 0.005,-4.963 0.005,-4.962 0.004,-4.963 0.005,-4.962 0.005,-4.963 0.004,-4.962 0.005,-4.963 0.005,-4.962 0.004,-4.963 0.005,-4.962 0.005,-4.963 0.005,-4.962 h 2.587 2.588 2.588 2.587 2.588 2.588 2.587 2.588 2.588 2.587 2.588 2.588 2.587 2.588 2.588 2.587 2.588 2.588 2.588 2.587 2.588 2.588 2.587 2.588 2.588 2.587 2.588 2.588 2.587 2.588 2.588 2.587 2.588 2.588 2.587 2.588 2.588 2.588 2.587 2.588 2.588 2.587 2.588 2.588 2.587 2.588 2.588 2.587 2.588 2.588 2.587 2.588 2.588 2.58694 2.588 2.588 2.588 2.587 2.588 2.588 2.587 2.588 2.588 2.587 v -3.47 -3.47 -3.47 -3.47 -3.47 -3.47 -3.47 -3.47 -3.469 -3.47 -3.47 -3.47 -3.47 -3.47 -3.47 -3.47 -3.47 -3.469 -3.47 -3.47 -3.47 -3.47 -3.47 -3.47 -3.47 -3.47 -3.469 -3.47 -3.47 -3.47 -3.47 -3.47 -3.47 -3.47 -3.47 -3.469 -3.47 -3.47 -3.47 -3.47 -3.47 -3.47 -3.47 -3.47 -3.469 -3.47 -3.47 -3.47 -3.47 -3.47 -3.47 -3.47 -3.47 -3.469 -3.47 -3.47 -3.47 -3.47 -3.47 -3.47 -3.47 -3.47 -3.469 -3.47 h -2.587 -2.588 -2.588 -2.589 -2.589 -2.591 -2.591 -2.592 -2.594 -2.594 -2.59694 -2.598 -2.601 -2.602 -2.605 -2.607 -2.61 -2.612 -2.616 -2.618 -2.622 -2.625 -2.629 -2.632 -2.636 -2.64 -2.645 -2.649 -2.653 -2.658 -2.663 -2.668 -2.673 -2.679 -2.684 -2.689 -2.696 -2.701 -2.708 -2.714 -2.72 -2.727 -2.734 -2.741 -2.748 -2.755 -2.763 -2.77 -2.778 -2.786 -2.794 -2.802 -2.81 -2.82 -2.828 -2.837 -2.845 -2.856 -2.864 -2.874 -2.884 -2.894 -2.903 -2.914 -2.924 -2.935 -2.944 -2.955 -2.964 -2.973 -2.983 -2.992 -3.001 -3.01 -3.019 -3.028 -3.035 -3.044 -3.053 -3.06 -3.067 -3.076 -3.083 -3.09 -3.097 -3.104 -3.111 -3.118 -3.124 -3.13 -3.137 -3.142 -3.148 -3.154 -3.16 -3.165 -3.169 -3.175 -3.18 -3.185 -3.189 -3.193 -3.197 -3.202 -3.205 -3.21 -3.212 -3.216 -3.22 -3.222 -3.225 -3.228 -3.231 -3.233 -3.235 -3.237 -3.239 -3.241 -3.243 -3.244 -3.245 -3.247 -3.247 -3.248 -3.249 -3.249 -3.25 -3.249 -3.25 -3.25 -3.249 -3.25 -3.249 -3.25 -3.25 -3.249 -3.25 -3.249 -3.249 -3.25 -3.249 -3.25 -3.249 -3.25 -3.249 -3.249 -3.25 -3.249 -3.249 -3.25 -3.249 -3.249 -3.249 -3.25 -3.249 -3.249 -3.249 -3.25 -3.249 -3.249 -3.249 -3.249 -3.249 -3.249 -3.25 -3.249 -3.249 -3.249 -3.249 -3.249 -3.249 -3.249 -3.249 -3.249 -3.249 -3.249 -3.249 -3.249 -3.249 -3.249 -3.249 -3.249 -3.249 -3.249 -3.25 -3.248 -3.249 -3.249 -3.249 -3.249 -3.249 -3.249 v 3.47 3.469 3.47 3.47 3.47 3.47 3.47 3.47 3.47 3.47 3.469 3.47 3.47 3.47 3.47 3.47 3.47 3.47 3.47 3.469 3.47 3.47 3.47 3.47 3.47 3.47 3.47 3.47 3.469 3.47 3.47 3.47 3.47 3.47 3.47 3.47 3.47 3.469 3.47 3.47 3.47 3.47 3.47 3.47 3.47 3.47 3.469 3.47 3.47 3.47 3.47 3.47 3.47 3.47 3.47 3.469 3.47 3.47 3.47 3.47 3.47 3.47 3.47 3.47 h 3.249 3.249 3.249 3.249 3.249 3.248 3.249 3.249 3.249 3.249 3.249 3.249 3.249 3.249 3.249 3.249 3.249 3.249 3.249 3.249 3.249 3.249 3.249 3.249 3.249 3.249 3.249 3.249 3.249 3.249 3.249 3.249 3.249 3.249 3.249 3.249 3.249 3.249 3.249 3.249 3.249 3.249 3.249 3.249 3.249 3.249 3.249 3.249 3.249 3.249 3.249 3.249 3.249 3.249 3.249 3.249 3.249 3.249 3.249 3.249 3.249 3.249 3.249 3.249 l -0.006,4.962 -0.005,4.963 -0.006,4.962 -0.006,4.963 -0.005,4.962 -0.006,4.963 -0.005,4.962 -0.006,4.963 -0.006,4.962 -0.005,4.963 -0.006,4.962 -0.005,4.963 -0.006,4.962 -0.006,4.963 -0.005,4.962 -0.006,4.962 -0.005,4.963 -0.006,4.963 -0.006,4.962 -0.005,4.963 -0.006,4.962 -0.005,4.963 -0.006,4.962 -0.006,4.963 -0.005,4.962 -0.006,4.962 -0.005,4.963 -0.006,4.962 -0.006,4.963 -0.005,4.962 -0.006,4.963 -0.006,4.962 -0.005,4.963 -0.006,4.962 -0.005,4.963 -0.006,4.962 -0.006,4.963 -0.005,4.962 -0.006,4.963 -0.005,4.962 -0.006,4.963 -0.006,4.962 -0.005,4.963 -0.006,4.962 -0.005,4.963 -0.006,4.962 -0.006,4.963 -0.005,4.962 -0.006,4.963 -0.005,4.962 -0.006,4.963 -0.006,4.962 -0.005,4.963 -0.006,4.962 -0.005,4.963 -0.006,4.962 -0.006,4.963 -0.005,4.962 -0.006,4.963 -0.006,4.962 -0.005,4.963 -0.006,4.962 -0.005,4.963 -0.006,4.962 v 3.319 3.318 3.319 3.318 3.319 3.318 3.319 3.318 3.319 3.318 3.319 3.318 3.319 3.318 3.319 3.318 3.319 3.318 3.319 3.318 3.319 3.318 3.319 3.318 3.319 3.318 3.319 3.318 3.319 3.318 3.319 3.318 3.319 3.318 3.319 3.318 3.319 3.318 3.319 3.318 3.319 3.318 3.319 3.318 3.319 3.318 3.319 3.318 3.318 3.319 3.319 3.318 3.318 3.319 3.318 3.319 3.318 3.319 3.318 3.319 3.318 3.319 3.318 3.319 1.121 1.12 l -0.002,1.121 -0.002,1.12 -0.003,1.12 -0.005,1.119 -0.008,1.118 -0.01,1.118 -0.012,1.117 -0.016,1.116 -0.019,1.115 -0.023,1.113 -0.028,1.112 -0.032,1.111 -0.036,1.109 -0.042,1.108 -0.048,1.105 -0.053,1.104 -0.06,1.102 -0.066,1.1 -0.074,1.097 -0.08,1.096 -0.089,1.092 -0.096,1.091 -0.105,1.087 -0.113,1.085 -0.123,1.082 -0.132,1.079 -0.142,1.076 -0.152,1.072 -0.162,1.069 -0.173,1.066 -0.185,1.062 -0.196,1.059 -0.207,1.055 -0.22,1.051 -0.233,1.047 -0.245,1.043 -0.259,1.039 -0.272,1.034 -0.287,1.03 -0.3,1.025 -0.316,1.021 -0.33,1.016 -0.345,1.011 -0.362,1.006 -0.377,1.001 -0.394,0.996 -0.411,0.99 -0.427,0.985 -0.445,0.98 -0.463,0.974 -0.481,0.968 -0.5,0.962 -0.518,0.956 -0.538,0.95 -0.557,0.944 -0.577,0.937 -0.598,0.932 -0.617,0.924 -0.639,0.918 -0.66,0.911 -0.682,0.905 -0.704,0.897 -0.726,0.89 -0.748,0.883 -0.77,0.876 -0.791,0.869 -0.811,0.861 -0.833,0.854 -0.853,0.847 -0.872,0.839 -0.892,0.832 -0.911,0.824 -0.93,0.816 -0.949,0.809 -0.967,0.801 -0.984,0.793 -1.002,0.786 -1.019,0.777 -1.036,0.77 -1.052,0.762 -1.068,0.754 -1.083,0.745 -1.099,0.738 -1.114,0.729 -1.129,0.721 -1.143,0.713 -1.157,0.704 -1.17,0.696 -1.183,0.688 -1.197,0.679 -1.209,0.67 -1.221,0.662 -1.232,0.653 -1.245,0.645 -1.255,0.636 -1.266,0.627 -1.276,0.618 -1.287,0.609 -1.296,0.6 -1.306,0.592 -1.314,0.582 -1.323,0.573 -1.332,0.564 -1.339,0.554 -1.347,0.546 -1.354,0.536 -1.361,0.526 -1.368,0.518 -1.374,0.507 -1.379,0.499 -1.385,0.488 -1.391,0.479 -1.395,0.47 -1.399,0.459 -1.403,0.45 -1.407,0.44 -1.411,0.43 -1.413,0.42 -1.417,0.41 -1.418,0.4 -1.421,0.39 -1.422,0.38 -1.423,0.369 -1.424,0.359 -1.425,0.349 -1.425,0.339 -1.425,0.328 -1.424,0.318 -1.425,0.308 -1.424,0.298 -1.425,0.288 -1.424,0.279 -1.424,0.269 -1.424,0.26 -1.423,0.25 -1.424,0.242 -1.423,0.233 -1.424,0.224 -1.423,0.216 -1.423,0.208 -1.423,0.199 -1.423,0.192 -1.423,0.183 -1.422,0.176 -1.423,0.169 -1.422,0.161 -1.422,0.154 -1.423,0.147 -1.422,0.14 -1.422,0.134 -1.422,0.127 -1.422,0.121 -1.421,0.114 -1.422,0.108 -1.421,0.103 -1.422,0.097 -1.421,0.091 -1.422,0.086 -1.421,0.081 -1.421,0.076 -1.421,0.071 -1.421,0.066 -1.421,0.061 -1.421,0.057 -1.421,0.053 -1.421,0.049 -1.42,0.045 -1.421,0.041 -1.421,0.038 -1.42,0.034 -1.421,0.031 -1.42,0.028 -1.421,0.025 -1.42,0.022 -1.421,0.02 -1.42,0.017 -1.42,0.015 -1.42,0.012 -1.421,0.011 -1.42,0.009 -1.42,0.008 -1.42,0.005 -1.42,0.005 -1.42,0.003 -1.421,0.003 -1.42,0.002 -1.42,0.001 h -1.42 -1.42 -1.42 v 2.67 2.67 2.67 2.67 2.67 2.67 2.67 2.67 2.67 2.67 2.67 2.67 2.67 2.67 2.67 2.67 2.67 2.67 2.67 2.67 2.669 2.67 2.67 2.67 2.67 2.67 2.67 2.67 2.67 2.67 2.67 2.67 2.67 2.67 2.67 2.67 2.67 2.67 2.67 2.67 2.67 2.67 2.67 2.669 2.67 2.67 2.67 2.67 2.67 2.67 2.67 2.67 2.67 2.67 2.67 2.67 2.67 2.67 2.67 2.67 2.67 2.67 2.67 2.67 h 1.42 1.42 1.42 1.42 1.42 1.421 1.42 1.42 1.42 1.42 1.42 1.42 1.42 1.42 1.42 1.42 1.42 1.42 1.42 1.42 1.421 1.42 1.42 1.42 1.42 1.42 1.42 1.42 1.42 1.42 1.42 1.42 1.42 1.421 1.42 1.42 1.42 1.42 1.42 1.42 1.42 1.42 1.42 1.42 1.42 1.42 1.42 1.42 1.421 1.42 1.42 1.42 1.42 1.42 1.42 1.42 1.42 1.42 1.42 1.42 1.42 1.42 1.421 1.42 1.42 1.42 1.42 1.42 1.42 1.42 1.42 1.42 1.42 1.42 1.42 1.42 1.42 1.421 1.42 1.42 1.42 1.42 1.42 1.42 1.42 1.42 1.42 1.42 1.42 1.42 1.42 1.421 1.42 1.42 1.42 1.42 1.42 1.42 1.42 1.42 1.42 1.42 1.42 1.42 1.42 1.42 1.421 1.42 1.42 1.42 1.42 1.42 1.42 1.42 1.42 1.42 1.42 1.42 1.42 1.42 1.421 1.42 1.42 1.42 1.42 1.42 1.42 1.42 l 0.484,-2.534 0.485,-2.533 0.486,-2.533 0.487,-2.531 0.49,-2.53 0.493,-2.527 0.496,-2.525 0.499,-2.522 0.505,-2.518 0.509,-2.515 0.515,-2.51 0.521,-2.506 0.528,-2.501 0.535,-2.495 0.543,-2.49 0.551,-2.483 0.561,-2.476 0.57,-2.469 0.579,-2.462 0.591,-2.453 0.602,-2.445 0.613,-2.436 0.626,-2.427 0.639,-2.417 0.652,-2.407 0.666,-2.396 0.68,-2.386 0.696,-2.374 0.712,-2.362 0.727,-2.35 0.745,-2.337 0.762,-2.324 0.779,-2.311 0.799,-2.297 0.817,-2.282 0.837,-2.267 0.857,-2.253 0.877,-2.236 0.899,-2.221 0.921,-2.204 0.943,-2.187 0.966,-2.17 0.99,-2.152 1.014,-2.134 1.038,-2.116 1.064,-2.096 1.089,-2.077 1.116,-2.057 1.142,-2.037 1.17,-2.016 1.198,-1.995 1.226,-1.973 1.256,-1.952 1.285,-1.929 1.315,-1.906 1.347,-1.883 1.377,-1.86 1.404,-1.839 1.428,-1.821 1.447,-1.807 1.463,-1.795 1.475,-1.786 1.482,-1.78 1.487,-1.777 1.775,-1.559 1.778,-1.557 1.786,-1.551 1.798,-1.542 1.814,-1.53 1.833,-1.515 1.857,-1.498 1.884,-1.477 1.915,-1.454 1.945,-1.43 1.976,-1.408 2.006,-1.385 2.034,-1.364 2.063,-1.341 2.091,-1.321 2.119,-1.3 2.145,-1.28 2.172,-1.259 2.198,-1.241 2.222,-1.221 2.248,-1.203 2.271,-1.184 2.295,-1.167 2.318,-1.15 2.34,-1.132 2.362,-1.117 2.383,-1.1 2.404,-1.084 2.425,-1.069 2.443,-1.055 2.463,-1.04 2.481,-1.026 2.5,-1.013 2.516,-0.999 2.534,-0.987 2.549,-0.974 2.565,-0.963 2.581,-0.951 2.595,-0.941 2.609,-0.93 2.622,-0.919 2.635,-0.91 2.648,-0.901 2.659,-0.892 2.671,-0.883 2.681,-0.875 2.691,-0.868 2.701,-0.86 2.709,-0.854 2.718,-0.847 2.726,-0.842 2.733,-0.836 2.74,-0.831 2.746,-0.826 2.752,-0.822 2.757,-0.818 2.761,-0.815 2.765,-0.812 2.769,-0.809 2.771,-0.807 2.773,-0.806 2.775,-0.804 2.777,-0.804 2.777,-0.803 v -1.121 -1.12 -1.121 -1.121 -1.121 -1.121 -1.121 -1.12 -1.121 -1.121 -1.121 -1.121 -1.121 -1.12 -1.121 -1.121 -1.121 -1.121 -1.121 -1.12 -1.121 -1.121 -1.121 -1.121 -1.121 -1.12 -1.121 -1.121 -1.121 -1.121 -1.121 -1.12 -1.121 -1.121 -1.121 -1.121 -1.12 -1.121 -1.121 -1.121 -1.121 -1.121 -1.121 -1.12 -1.121 -1.121 -1.121 -1.121 -1.121 -1.12 -1.121 -1.121 -1.121 -1.121 -1.121 -1.12 -1.121 -1.121 -1.121 -1.121 -1.121 -1.12 -1.121 -1.121 -3.319 -3.318 -3.319 -3.318 -3.319 -3.318 -3.319 -3.318 -3.319 -3.318 -3.319 -3.318 -3.318 -3.319 -3.319 -3.318 -3.318 -3.319 -3.318 -3.319 -3.318 -3.319 -3.318 -3.319 -3.318 -3.319 -3.318 -3.319 -3.318 -3.319 -3.318 -3.319 -3.318 -3.319 -3.318 -3.319 -3.318 -3.319 -3.318 -3.319 -3.318 -3.319 -3.318 -3.319 -3.318 -3.319 -3.318 -3.319 -3.318 -3.319 -3.318 -3.319 -3.318 -3.319 -3.318 -3.319 -3.318 -3.319 -3.318 -3.319 -3.318 -3.319 -3.318"
         id="path2"
         style="fill:url(#linearGradient17);fill-opacity:1" /><path
         fill="none"
         stroke-width="3"
         stroke-linecap="butt"
         stroke-opacity="1"
         stroke="#000000"
         stroke-linejoin="bevel"
         d="m 1304.073,237.452 5.036,-0.027 5.035,-0.027 5.034,-0.027 5.032,-0.028 5.029,-0.029 5.025,-0.03 5.021,-0.032 5.016,-0.034 5.01,-0.035 5.004,-0.038 4.996,-0.04 4.989,-0.043 4.98,-0.046 4.97,-0.049 4.96,-0.052 4.95,-0.056 4.938,-0.061 4.925,-0.064 4.913,-0.069 4.899,-0.073 4.885,-0.078 4.869,-0.084 4.854,-0.088 4.836,-0.095 4.82,-0.1 4.801,-0.107 4.783,-0.113 4.764,-0.119 4.743,-0.127 4.722,-0.134 4.7,-0.141 4.678,-0.148 4.656,-0.157 4.631,-0.164 4.606,-0.173 4.582,-0.182 4.555,-0.19 4.529,-0.199 4.501,-0.209 4.473,-0.219 4.445,-0.228 4.414,-0.238 4.385,-0.249 4.353,-0.259 4.322,-0.27 4.289,-0.281 4.256,-0.293 4.222,-0.304 4.187,-0.316 4.152,-0.328 4.116,-0.34 4.079,-0.352 4.042,-0.366 4.003,-0.378 3.965,-0.392 3.924,-0.405 3.885,-0.42 3.842,-0.433 3.802,-0.447 3.759,-0.462 3.715,-0.476 3.671,-0.492 3.627,-0.507 3.581,-0.522 3.535,-0.538 3.49,-0.554 3.444,-0.57 3.4,-0.586 3.355,-0.603 3.313,-0.619 3.269,-0.636 3.227,-0.653 3.184,-0.67 3.144,-0.686 3.102,-0.705 3.063,-0.722 3.022,-0.739 2.983,-0.757 2.945,-0.776 2.906,-0.793 2.869,-0.812 2.831,-0.83 2.795,-0.849 2.759,-0.868 2.724,-0.887 2.688,-0.905 2.654,-0.926 2.62,-0.944 2.586,-0.964 2.554,-0.984 2.521,-1.004 2.49,-1.024 2.458,-1.044 2.428,-1.065 2.398,-1.085 2.367,-1.106 2.339,-1.127 2.31,-1.148 2.282,-1.169 2.255,-1.191 2.227,-1.212 2.201,-1.234 2.176,-1.256 2.149,-1.278 2.125,-1.299 2.101,-1.323 2.077,-1.345 2.053,-1.367 2.031,-1.391 2.009,-1.413 1.987,-1.436 1.966,-1.46 1.945,-1.484 1.925,-1.507 1.906,-1.531 1.887,-1.554 1.868,-1.579 1.85,-1.604 1.833,-1.627 1.816,-1.652 1.8,-1.678 1.784,-1.702 1.769,-1.727 1.754,-1.752 1.74,-1.778 1.726,-1.803 1.713,-1.83 1.701,-1.855 1.688,-1.881 1.676,-1.905 1.664,-1.93 1.651,-1.953 1.639,-1.974 1.626,-1.994 1.613,-2.014 1.601,-2.032 1.587,-2.049 1.574,-2.065 1.56,-2.08 1.547,-2.093 1.534,-2.106 1.519,-2.118 1.506,-2.127 1.492,-2.137 1.478,-2.146 1.463,-2.152 1.449,-2.157 1.434,-2.163 1.42,-2.166 1.405,-2.169 1.39,-2.169 1.375,-2.17 1.359,-2.169 1.345,-2.167 1.329,-2.164 1.313,-2.16 1.297,-2.154 1.282,-2.147 1.266,-2.14 1.249,-2.131 1.234,-2.121 1.217,-2.11 1.2,-2.098 1.184,-2.084 1.167,-2.071 1.15,-2.054 1.134,-2.038 1.115,-2.02 1.099,-2.001 1.081,-1.981 1.064,-1.959 1.046,-1.938 1.028,-1.914 1.01,-1.889 0.992,-1.864 0.974,-1.837 0.956,-1.809 0.937,-1.779 0.918,-1.75 0.9,-1.718 0.88,-1.686 0.862,-1.652 0.843,-1.618 0.823,-1.582 0.805,-1.546 0.787,-1.513 0.773,-1.486 0.761,-1.462 0.751,-1.444 0.744,-1.431 0.739,-1.421 0.736,-1.416 0.572,-1.047 0.57,-1.042 0.564,-1.032 0.557,-1.017 0.547,-0.996 0.534,-0.971 0.518,-0.941 0.5,-0.905 0.481,-0.865 0.46,-0.825 0.44,-0.787 0.419,-0.747 0.399,-0.71 0.378,-0.672 0.358,-0.636 0.337,-0.6 0.317,-0.564 0.296,-0.53 0.276,-0.496 0.256,-0.463 0.235,-0.43 0.215,-0.398 0.194,-0.367 0.174,-0.337 0.153,-0.306 0.133,-0.278 0.113,-0.249 0.092,-0.22 0.071,-0.194 0.051,-0.167 0.031,-0.141 0.01,-0.116 -0.01,-0.092 -0.031,-0.067 -0.051,-0.044 -0.071,-0.022 h -0.092 l -0.113,0.021 -0.133,0.042 -0.153,0.062 -0.174,0.081 -0.194,0.099 -0.215,0.118 -0.235,0.134 -0.256,0.151 -0.276,0.167 -0.296,0.183 -0.317,0.196 -0.337,0.211 -0.358,0.224 -0.378,0.236 -0.399,0.248 -0.419,0.259 -0.44,0.27 -0.46,0.279 -0.481,0.289 -0.5,0.297 -0.519,0.305 -0.533,0.311 -0.547,0.316 -0.557,0.321 -0.564,0.324 -0.57,0.326 -0.572,0.327 -0.736,0.352 -0.739,0.353 -0.744,0.353 -0.751,0.354 -0.761,0.354 -0.773,0.356 -0.787,0.358 -0.805,0.359 -0.823,0.361 -0.843,0.362 -0.862,0.364 -0.88,0.366 -0.9,0.367 -0.918,0.368 -0.937,0.369 -0.956,0.37 -0.974,0.37 -0.992,0.371 -1.01,0.371 -1.028,0.372 -1.046,0.371 -1.064,0.371 -1.081,0.371 -1.099,0.371 -1.115,0.37 -1.134,0.369 -1.15,0.368 -1.167,0.367 -1.184,0.366 -1.2,0.365 -1.217,0.363 -1.233,0.361 -1.25,0.359 -1.266,0.357 -1.281,0.356 -1.298,0.352 -1.313,0.351 -1.329,0.347 -1.345,0.345 -1.359,0.342 -1.375,0.339 -1.39,0.336 -1.405,0.332 -1.42,0.328 -1.434,0.325 -1.449,0.321 -1.463,0.316 -1.478,0.313 -1.492,0.308 -1.506,0.304 -1.519,0.299 -1.534,0.294 -1.547,0.289 -1.56,0.284 -1.574,0.279 -1.587,0.273 -1.601,0.267 -1.613,0.262 -1.626,0.256 -1.639,0.249 -1.651,0.244 -1.664,0.237 -1.676,0.23 -1.688,0.224 -1.701,0.217 -1.713,0.21 -1.726,0.204 -1.74,0.196 -1.754,0.191 -1.769,0.184 -1.784,0.178 -1.8,0.171 -1.816,0.166 -1.833,0.16 -1.85,0.154 -1.868,0.148 -1.887,0.143 -1.906,0.137 -1.925,0.132 -1.945,0.126 -1.966,0.122 -1.987,0.116 -2.009,0.111 -2.031,0.107 -2.053,0.102 -2.077,0.097 -2.101,0.092 -2.125,0.089 -2.149,0.084 -2.176,0.079 -2.201,0.076 -2.227,0.072 -2.255,0.067 -2.282,0.064 -2.31,0.061 -2.339,0.057 -2.367,0.053 -2.398,0.05 -2.428,0.047 -2.458,0.044 -2.49,0.04 -2.521,0.038 -2.554,0.035 -2.586,0.032 -2.62,0.03 -2.654,0.027 -2.688,0.025 -2.724,0.023 -2.759,0.02 -2.795,0.018 -2.831,0.017 -2.869,0.015 -2.906,0.013 -2.945,0.011 -2.983,0.01 -3.022,0.008 -3.063,0.007 -3.102,0.006 -3.144,0.005 -3.184,0.004 -3.227,0.003 -3.269,0.002 -3.313,0.002 -3.355,10e-4 -3.4,0.001 h -3.444 -3.49 -3.535 -3.581 -3.627 -3.671 -3.715 -3.759 -3.802 -3.842 -3.885 -3.924 -3.965 -4.003 -4.042 -4.079 -4.116 -4.152 -4.187 -4.222 -4.256 -4.289 -4.322 -4.353 -4.385 -4.414 -4.445 -4.473 -4.501 -4.529 -4.555 -4.582 -4.606 -4.631 -4.656 -4.678 -4.7 -4.722 -4.743 -4.764 -4.783 -4.801 -4.82 -4.836 -4.854 -4.869 -4.885 -4.899 -4.913 -4.925 -4.938 -4.95 -4.96 -4.97 -4.98 -4.989 -4.996 -5.004 -5.01 -5.016 -5.021 -5.025 -5.029 -5.032 -5.034 -5.035 -5.036 v 3.083 3.084 3.083 3.083 3.084 3.083 3.083 3.083 3.084 3.083 3.083 3.084 3.083 3.083 3.083 3.084 3.083 3.083 3.084 3.083 3.083 3.084 3.083 3.083 3.083 3.084 3.083 3.083 3.084 3.083 3.083 3.083 3.084 3.083 3.083 3.084 3.083 3.083 3.084 3.083 3.083 3.084 3.083 3.083 3.083 3.084 3.083 3.083 3.084 3.083 3.083 3.083 3.084 3.083 3.083 3.084 3.083 3.083 3.084 3.083 3.083 3.083 3.084 3.083"
         id="path3"
         style="fill:url(#linearGradient18);fill-opacity:1" /><path
         fill="none"
         stroke-width="3"
         stroke-linecap="butt"
         stroke-opacity="1"
         stroke="#000000"
         stroke-linejoin="bevel"
         d="m 1064.435,390.107 v 5.605 2.991 2.992 2.992 2.991 2.992 2.992 2.991 2.992 2.991 2.992 2.992 2.991 2.992 2.991 2.992 2.992 2.991 2.992 2.992 2.991 2.992 2.991 2.992 2.992 2.991 2.992 2.991 2.992 2.992 2.991 2.992 2.992 2.991 2.992 2.991 2.992 2.992 2.991 2.992 2.992 2.991 2.992 2.991 2.992 2.992 2.991 2.992 2.991 2.992 2.992 2.991 2.992 2.992 2.991 2.992 2.991 2.992 2.992 2.991 2.992 2.991 2.992 2.992 2.991 3.127 3.126 3.127 3.127 3.126 3.127 3.127 3.126 3.127 3.126 3.127 3.127 3.126 3.127 3.127 3.126 3.127 3.126 3.127 3.127 3.126 3.127 3.127 3.126 3.127 3.126 3.127 3.127 3.126 3.127 3.126 3.127 3.127 3.126 3.127 3.127 3.126 3.127 3.126 3.127 3.127 3.126 3.127 3.127 3.126 3.127 3.126 3.127 3.127 3.126 3.127 3.126 3.127 3.127 3.126 3.127 3.127 3.126 3.127 3.126 3.127 3.127 3.126 3.127 1.121 1.121 1.12 1.121 1.121 1.121 1.121 1.121 1.12 1.121 1.121 1.121 1.121 1.121 1.12 1.121 1.121 1.121 1.121 1.121 1.12 1.121 1.121 1.121 1.121 1.121 1.12 1.121 1.121 1.121 1.121 1.121 1.12 1.121 1.121 1.121 1.121 1.121 1.12 1.121 1.121 1.121 1.121 1.121 1.12 1.121 1.121 1.121 1.121 1.121 1.12 1.121 1.121 1.121 1.121 1.121 1.12 1.121 1.121 1.121 1.121 1.121 1.12 1.121 l 2.774,0.803 2.774,0.804 2.773,0.804 2.771,0.806 2.769,0.807 2.766,0.809 2.763,0.812 2.759,0.815 2.754,0.818 2.749,0.822 2.744,0.826 2.738,0.831 2.731,0.836 2.723,0.842 2.716,0.847 2.708,0.854 2.698,0.86 2.689,0.868 2.679,0.875 2.668,0.883 2.657,0.892 2.646,0.901 2.633,0.91 2.62,0.919 2.606,0.93 2.593,0.94 2.578,0.952 2.564,0.962 2.547,0.975 2.531,0.987 2.515,0.999 2.497,1.013 2.479,1.026 2.461,1.04 2.442,1.055 2.422,1.069 2.402,1.084 2.382,1.1 2.36,1.117 2.338,1.132 2.316,1.15 2.293,1.166 2.269,1.185 2.246,1.203 2.221,1.221 2.196,1.241 2.17,1.259 2.143,1.28 2.117,1.3 2.09,1.321 2.061,1.341 2.033,1.364 2.004,1.385 1.974,1.408 1.945,1.43 1.913,1.454 1.883,1.477 1.855,1.498 1.832,1.515 1.812,1.53 1.797,1.542 1.785,1.551 1.777,1.557 1.773,1.559 1.485,1.777 1.482,1.78 1.474,1.786 1.462,1.795 1.446,1.807 1.427,1.821 1.403,1.839 1.376,1.86 1.346,1.883 1.314,1.906 1.285,1.929 1.254,1.952 1.226,1.973 1.197,1.995 1.17,2.016 1.141,2.037 1.115,2.057 1.089,2.077 1.063,2.096 1.038,2.116 1.013,2.134 0.989,2.152 0.966,2.17 0.942,2.187 0.921,2.204 0.898,2.221 0.878,2.236 0.856,2.253 0.837,2.267 0.817,2.282 0.797,2.297 0.78,2.311 0.761,2.324 0.745,2.337 0.727,2.35 0.711,2.362 0.696,2.374 0.68,2.386 0.666,2.396 0.652,2.407 0.639,2.417 0.625,2.427 0.614,2.436 0.601,2.445 0.591,2.453 0.579,2.462 0.57,2.469 0.56,2.476 0.552,2.483 0.542,2.49 0.536,2.495 0.527,2.501 0.521,2.506 0.515,2.51 0.51,2.515 0.504,2.518 0.5,2.522 0.496,2.525 0.492,2.527 0.49,2.53 0.487,2.531 0.486,2.533 0.485,2.533 0.484,2.534 h 1.42 1.42 1.42 1.421 1.42 1.42 1.42 1.42 1.42 1.42 1.42 1.42 1.42 1.42 1.42 1.42 1.42 1.421 1.42 1.42 1.42 1.42 1.42 1.42 1.42 1.42 1.42 1.42 1.42 1.42 1.42 1.421 1.419 1.421 1.42 1.42 1.42 1.42 1.42 1.42 1.42 1.42 1.42 1.42 1.421 1.42 1.42 1.42 1.42 1.42 1.42 1.42 1.42 1.42 1.42 1.42 1.42 1.42 1.42 1.421 1.42 1.42 1.42 1.42 1.42 1.42 1.42 1.42 1.42 1.42 1.42 1.42 1.42 1.42 1.421 1.42 1.42 1.42 1.42 1.42 1.42 1.42 1.42 1.42 1.42 1.42 1.42 1.421 1.42 1.42 1.42 1.42 1.42 1.42 1.42 1.42 1.42 1.42 1.42 1.42 1.42 1.42 1.421 1.42 1.42 1.42 1.42 1.42 1.42 1.42 1.42 1.42 1.42 1.42 1.42 1.42 1.42 1.421 1.42 1.42 1.42 1.42 1.42 1.42 1.42 1.42 1.42 1.42 v -2.67 -2.67 -2.67 -2.67 -2.67 -2.67 -2.67 -2.67 -2.67 -2.67 -2.67 -2.67 -2.67 -2.67 -2.67 -2.67 -2.67 -2.67 -2.67 -2.67 -2.669 -2.67 -2.67 -2.67 -2.67 -2.67 -2.67 -2.67 -2.67 -2.67 -2.67 -2.67 -2.67 -2.67 -2.67 -2.67 -2.67 -2.67 -2.67 -2.67 -2.67 -2.67 -2.67 -2.669 -2.67 -2.67 -2.67 -2.67 -2.67 -2.67 -2.67 -2.67 -2.67 -2.67 -2.67 -2.67 -2.67 -2.67 -2.67 -2.67 -2.67 -2.67 -2.67 -2.67 h -1.42 -1.42 -1.42 l -1.42,-0.001 -1.42,-0.002 -1.42,-0.003 -1.42,-0.003 -1.42,-0.005 -1.42,-0.005 -1.421,-0.008 -1.42,-0.009 -1.42,-0.011 -1.42,-0.012 -1.42,-0.015 -1.42,-0.017 -1.42,-0.02 -1.42,-0.022 -1.42,-0.025 -1.42,-0.028 -1.42,-0.031 -1.42,-0.034 -1.42,-0.038 -1.42,-0.041 -1.42,-0.045 -1.42,-0.049 -1.421,-0.053 -1.42,-0.057 -1.42,-0.061 -1.42,-0.066 -1.42,-0.071 -1.42,-0.076 -1.42,-0.081 -1.42,-0.086 -1.42,-0.091 -1.42,-0.097 -1.42,-0.103 -1.42,-0.108 -1.42,-0.114 -1.42,-0.121 -1.42,-0.127 -1.421,-0.134 -1.42,-0.14 -1.42,-0.147 -1.42,-0.154 -1.42,-0.161 -1.42,-0.169 -1.42,-0.176 -1.42,-0.183 -1.42,-0.192 -1.42,-0.199 -1.42,-0.208 -1.42,-0.216 -1.42,-0.224 -1.421,-0.233 -1.42,-0.242 -1.42,-0.25 -1.42,-0.26 -1.42,-0.269 -1.42,-0.279 -1.42,-0.288 -1.42,-0.298 -1.42,-0.308 -1.42,-0.318 -1.42,-0.328 -1.42,-0.339 -1.42,-0.349 -1.419,-0.359 -1.418,-0.369 -1.416,-0.38 -1.415,-0.39 -1.413,-0.4 -1.41,-0.41 -1.408,-0.42 -1.405,-0.43 -1.401,-0.44 -1.397,-0.45 -1.393,-0.459 -1.389,-0.47 -1.384,-0.479 -1.379,-0.488 -1.373,-0.499 -1.368,-0.507 -1.361,-0.518 -1.355,-0.526 -1.348,-0.536 -1.34,-0.546 -1.334,-0.554 -1.325,-0.564 -1.317,-0.573 -1.308,-0.583 -1.3,-0.591 -1.29,-0.6 -1.281,-0.609 -1.27,-0.618 -1.261,-0.627 -1.249,-0.636 -1.239,-0.645 -1.228,-0.653 -1.215,-0.662 -1.204,-0.67 -1.191,-0.679 -1.179,-0.688 -1.166,-0.696 -1.152,-0.704 -1.138,-0.713 -1.125,-0.721 -1.11,-0.729 -1.095,-0.738 -1.08,-0.746 -1.065,-0.753 -1.049,-0.762 -1.032,-0.77 -1.017,-0.777 -0.999,-0.786 -0.983,-0.793 -0.964,-0.801 -0.947,-0.809 -0.929,-0.816 -0.91,-0.824 -0.891,-0.832 -0.873,-0.839 -0.852,-0.847 -0.833,-0.854 -0.812,-0.861 -0.792,-0.869 -0.771,-0.876 -0.749,-0.883 -0.728,-0.89 -0.706,-0.897 -0.684,-0.905 -0.663,-0.911 -0.642,-0.918 -0.622,-0.924 -0.601,-0.932 -0.582,-0.937 -0.562,-0.944 -0.542,-0.95 -0.524,-0.956 -0.505,-0.962 -0.487,-0.969 -0.469,-0.973 -0.452,-0.98 -0.434,-0.985 -0.418,-0.99 -0.401,-0.996 -0.385,-1.001 -0.369,-1.006 -0.354,-1.011 -0.339,-1.016 -0.324,-1.021 -0.309,-1.025 -0.295,-1.03 -0.282,-1.035 -0.268,-1.038 -0.256,-1.043 -0.242,-1.047 -0.23,-1.051 -0.219,-1.055 -0.206,-1.059 -0.195,-1.062 -0.185,-1.066 -0.173,-1.069 -0.163,-1.073 -0.154,-1.075 -0.143,-1.079 -0.135,-1.082 -0.125,-1.085 -0.117,-1.088 -0.109,-1.09 -0.1,-1.092 -0.094,-1.096 -0.086,-1.097 -0.079,-1.1 -0.072,-1.102 -0.067,-1.104 -0.06,-1.105 -0.055,-1.109 -0.05,-1.113 -0.045,-1.123 -0.041,-1.137 -0.037,-1.153 -0.032,-1.174 -0.03,-1.199 -0.026,-1.227 -0.023,-1.262 -0.022,-1.314 -0.019,-1.385 -0.017,-1.475 -0.016,-1.586 -0.015,-1.715 -0.014,-1.865 -0.014,-2.033 -0.014,-2.214 -0.014,-2.383 -0.013,-2.532 -0.014,-2.661 -0.014,-2.771 -0.014,-2.861 -0.014,-2.931 -0.014,-2.982 -0.013,-3.017 -0.014,-3.043 -0.014,-3.068 -0.014,-3.086 -0.014,-3.103 -0.014,-3.114 -0.013,-3.122 -0.014,-3.126 -0.014,-3.127 -0.014,-3.126 -0.014,-3.127 -0.014,-3.126 -0.013,-3.127 -0.014,-3.127 -0.014,-3.126 -0.014,-3.127 -0.014,-3.127 -0.013,-3.126 -0.014,-3.127 -0.014,-3.126 -0.014,-3.127 -0.014,-3.127 -0.014,-3.126 -0.013,-3.127 -0.014,-3.127 -0.014,-3.126 -0.014,-3.127 -0.014,-3.126 -0.014,-3.127 -0.013,-3.127 -0.014,-3.126 -0.014,-3.127 -0.014,-3.126 -0.014,-3.127 -0.014,-3.127 -0.013,-3.126 -0.014,-3.127 -0.014,-3.127 -0.014,-3.126 -0.014,-3.127 -0.014,-3.126 -0.013,-3.127 -0.014,-3.127 -0.014,-3.126 -0.014,-3.127 -0.014,-3.127 -0.014,-3.126 -0.013,-3.127 -0.014,-3.126 -0.014,-3.127 -0.014,-3.127 -0.014,-3.126 -0.014,-3.127 -0.013,-3.127 -0.014,-3.126 -0.014,-3.127 h 3.181 3.181 3.181 3.181 3.181 3.181 3.181 3.181 3.181 3.181 3.181 3.181 3.18 3.181 3.181 3.181 3.181 3.181 3.181 3.181 3.181 3.181 3.181 3.181 3.181 3.181 3.181 3.181 3.181 3.181 3.181 3.181 3.181 3.181 3.181 3.181 3.18 3.182 3.18 3.181 3.181 3.181 3.181 3.181 3.181 3.181 3.181 3.181 3.181 3.181 3.181 3.181 3.181 3.181 3.181 3.181 3.181 3.181 3.181 3.181 3.181 3.18 3.181 3.181 v -2.991 -2.992 -2.992 -2.991 -2.992 -2.991 -2.992 -2.992 -2.991 -2.992 -2.991 -2.992 -2.992 -2.991 -2.992 -2.992 -2.991 -2.992 -2.991 -2.992 -2.992 -2.991 -2.992 -2.991 -2.992 -2.992 -2.991 -2.992 -2.992 -2.991 -2.992 -2.991 -2.992 -2.992 -2.991 -2.992 -2.992 -2.991 -2.992 -2.991 -2.992 -2.992 -2.991 -2.992 -2.991 -2.992 -2.992 -2.991 -2.992 -2.992 -2.991 -2.992 -2.991 -2.992 -2.992 -2.991 -2.992 -2.991 -2.992 -2.992 -2.991 -2.992 -2.992 -2.991 h -3.181 -3.18 -3.181 -3.181 -3.181 -3.181 -3.181 -3.181 -3.181 -3.181 -3.181 -3.181 -3.181 -3.181 -3.181 -3.181 -3.181 -3.181 -3.181 -3.181 -3.181 -3.181 -3.181 -3.181 -3.181 -3.18 -3.182 -3.18 -3.181 -3.181 -3.181 -3.181 -3.181 -3.181 -3.181 -3.181 -3.181 -3.181 -3.181 -3.181 -3.181 -3.181 -3.181 -3.181 -3.181 -3.181 -3.181 -3.181 -3.181 -3.181 -3.181 -3.18 -3.181 -3.181 -3.181 -3.181 -3.181 -3.181 -3.181 -3.181 -3.181 -3.181 -3.181 -3.181 v -5.605 -5.606 -5.605 -5.605 -5.606 -5.605 -5.605 -5.606 -5.605 -5.605 -5.606 -5.605 -5.605 -5.606 -5.605 -5.605 -5.606 -5.605 -5.605 -5.606 -5.605 -5.605 -5.606 -5.605 -5.605 -5.606 -5.605 -5.605 -5.606 -5.605 -5.605 -5.606 -5.605 -5.605 -5.606 -5.605 -5.605 -5.606 -5.605 -5.605 -5.606 -5.605 -5.605 -5.606 -5.605 -5.605 -5.606 -5.605 -5.605 -5.606 -5.605 -5.605 -5.606 -5.605 -5.605 -5.606 -5.605 -5.605 -5.606 -5.605 -5.605 -5.605 -5.606 -5.605 h -3.231 -3.231 -3.231 -3.231 -3.231 -3.231 -3.231 -3.231 -3.231 -3.231 -3.231 -3.231 -3.231 -3.231 -3.231 -3.231 -3.231 -3.231 -3.231 -3.231 -3.231 -3.231 -3.231 -3.232 -3.231 -3.231 -3.231 -3.231 -3.231 -3.231 -3.231 -3.231 -3.231 -3.231 -3.231 -3.231 -3.231 -3.231 -3.231 -3.231 -3.231 -3.231 -3.231 -3.231 -3.231 -3.231 -3.231 -3.231 -3.231 -3.231 -3.231 -3.231 -3.231 -3.231 -3.231 -3.231 -3.231 -3.231 -3.231 -3.231 -3.231 -3.231 -3.231 -3.231 v 5.605 5.606 5.605 5.605 5.605 5.606 5.605 5.605 5.606 5.605 5.605 5.606 5.605 5.605 5.606 5.605 5.605 5.606 5.605 5.605 5.606 5.605 5.605 5.606 5.605 5.605 5.606 5.605 5.605 5.606 5.605 5.605 5.606 5.605 5.605 5.606 5.605 5.605 5.606 5.605 5.605 5.606 5.605 5.605 5.606 5.605 5.605 5.606 5.605 5.605 5.606 5.605 5.605 5.606 5.605 5.605 5.606 5.605 5.605 5.606 5.605 5.605 5.606"
         id="path4"
         style="fill:url(#linearGradient19);fill-opacity:1" /></g></g></svg>
